<?xml version="1.0" encoding="UTF-8" standalone="no"?><!DOCTYPE svg PUBLIC "-//W3C//DTD SVG 1.1//EN" "http://www.w3.org/Graphics/SVG/1.1/DTD/svg11.dtd"><svg width="100%" height="100%" viewBox="0 0 48 72" version="1.1" xmlns="http://www.w3.org/2000/svg" xmlns:xlink="http://www.w3.org/1999/xlink" xml:space="preserve" xmlns:serif="http://www.serif.com/" style="fill-rule:evenodd;clip-rule:evenodd;stroke-linejoin:round;stroke-miterlimit:1.41421;"><rect id="beer" x="0" y="0" width="48" height="72" style="fill:none;"/><g><ellipse cx="24" cy="9.923" rx="5.205" ry="3.293"/><ellipse cx="24" cy="6.51" rx="5.205" ry="3.293"/><path d="M20.348,12.333c-0.005,-0.036 -0.007,-0.072 -0.007,-0.108c0,-1.01 1.64,-1.83 3.659,-1.83c2.019,0 3.659,0.82 3.659,1.83c0,0.036 -0.002,0.072 -0.007,0.108l0.007,0.001c0,0 0.158,5.111 0.912,8.123c0.702,2.811 3.736,6.887 3.736,13.128c0,0.127 -0.004,0.253 -0.012,0.376l0.012,0l0,31.095l-0.003,0c-0.116,2.242 -3.792,4.045 -8.304,4.045c-4.512,0 -8.188,-1.803 -8.304,-4.045l-0.003,0l0,-31.095l0.012,0c-0.008,-0.123 -0.012,-0.249 -0.012,-0.376c0,-6.241 3.034,-10.317 3.736,-13.128c0.754,-3.012 0.912,-8.123 0.912,-8.123l0.007,-0.001Z"/></g></svg>