<?xml version="1.0" encoding="UTF-8" standalone="no"?>
<!DOCTYPE svg PUBLIC "-//W3C//DTD SVG 1.1//EN" "http://www.w3.org/Graphics/SVG/1.1/DTD/svg11.dtd"><svg width="100%"
  height="100%" viewBox="0 0 48 72" version="1.1" xmlns="http://www.w3.org/2000/svg" xmlns:xlink="http://www.w3.org/1999/xlink"
  xml:space="preserve" xmlns:serif="http://www.serif.com/" style="fill-rule:evenodd;clip-rule:evenodd;stroke-linejoin:round;stroke-miterlimit:1.41421;">
  <rect id="beer" x="0" y="0" width="48" height="72" style="fill:none;" />
  <path d="M19.549,8.217c-0.479,-0.498 -0.754,-1.082 -0.754,-1.707c0,-1.817 2.332,-3.292 5.205,-3.292c2.873,0 5.205,1.475 5.205,3.292c0,0.625 -0.275,1.209 -0.754,1.707c0.479,0.498 0.754,1.082 0.754,1.706c0,1.818 -2.332,3.293 -5.205,3.293c-2.873,0 -5.205,-1.475 -5.205,-3.293c0,-0.624 0.275,-1.208 0.754,-1.706Z" />
  <path d="M20.348,12.333c-0.005,-0.036 -0.007,-0.072 -0.007,-0.108c0,-1.01 1.64,-1.83 3.659,-1.83c2.019,0 3.659,0.82 3.659,1.83c0,0.036 -0.002,0.072 -0.007,0.108l0.007,0.001c0,0 0.158,5.111 0.912,8.123c0.702,2.811 3.736,6.887 3.736,13.128c0,0.127 -0.004,0.253 -0.012,0.376l0.012,0l0,31.095l-0.003,0c-0.116,2.242 -3.792,4.045 -8.304,4.045c-4.512,0 -8.188,-1.803 -8.304,-4.045l-0.003,0l0,-31.095l0.012,0c-0.008,-0.123 -0.012,-0.249 -0.012,-0.376c0,-6.241 3.034,-10.317 3.736,-13.128c0.754,-3.012 0.912,-8.123 0.912,-8.123l0.007,-0.001Z" />
  <clipPath id="_clip1">
    <path d="M20.348,12.333c-0.005,-0.036 -0.007,-0.072 -0.007,-0.108c0,-1.01 1.64,-1.83 3.659,-1.83c2.019,0 3.659,0.82 3.659,1.83c0,0.036 -0.002,0.072 -0.007,0.108l0.007,0.001c0,0 0.158,5.111 0.912,8.123c0.702,2.811 3.736,6.887 3.736,13.128c0,0.127 -0.004,0.253 -0.012,0.376l0.012,0l0,31.095l-0.003,0c-0.116,2.242 -3.792,4.045 -8.304,4.045c-4.512,0 -8.188,-1.803 -8.304,-4.045l-0.003,0l0,-31.095l0.012,0c-0.008,-0.123 -0.012,-0.249 -0.012,-0.376c0,-6.241 3.034,-10.317 3.736,-13.128c0.754,-3.012 0.912,-8.123 0.912,-8.123l0.007,-0.001Z" />
  </clipPath>
  <g clip-path="url(#_clip1)">
    <path d="M15.693,10.431l0.003,0c0.116,2.243 3.792,4.045 8.304,4.045c4.512,0 8.188,-1.802 8.304,-4.045l0.003,0l0,6.255l-0.003,0c-0.116,2.242 -3.792,4.044 -8.304,4.044c-4.512,0 -8.188,-1.802 -8.304,-4.044l-0.003,0l0,-6.255Z"
      style="fill:#e0f;" />
  </g>
  <path d="M18.453,36.745c0.938,-2.133 3.07,-3.623 5.547,-3.623c2.477,0 4.609,1.49 5.547,3.623c1.643,-0.738 2.696,-1.799 2.757,-2.982l0.003,0l0,21.741l-0.003,0c-0.116,2.242 -3.792,4.045 -8.304,4.045c-4.512,0 -8.188,-1.803 -8.304,-4.045l-0.003,0l0,-21.741l0.003,0c0.061,1.183 1.114,2.244 2.757,2.982Z"
    style="fill:#e0f;" />
</svg>
