<?xml version="1.0" encoding="UTF-8" standalone="no"?><!DOCTYPE svg PUBLIC "-//W3C//DTD SVG 1.1//EN" "http://www.w3.org/Graphics/SVG/1.1/DTD/svg11.dtd"><svg width="100%" height="100%" viewBox="0 0 48 72" version="1.1" xmlns="http://www.w3.org/2000/svg" xmlns:xlink="http://www.w3.org/1999/xlink" xml:space="preserve" xmlns:serif="http://www.serif.com/" style="fill-rule:evenodd;clip-rule:evenodd;stroke-linejoin:round;stroke-miterlimit:1.41421;"><rect id="bucket" x="0" y="0" width="48" height="72" style="fill:none;"/><ellipse cx="23.622" cy="60.267" rx="14.315" ry="7.743"/><path d="M5.09,32.445l37.063,0l-4.319,28.823l-28.42,0l-4.324,-28.823Z"/><ellipse cx="23.622" cy="32.126" rx="18.531" ry="10.024"/><clipPath id="_clip1"><ellipse cx="23.622" cy="32.126" rx="18.531" ry="10.024"/></clipPath><g clip-path="url(#_clip1)"><path d="M12.07,34.839c0.639,-2.217 2.786,-3.856 5.268,-3.856c2.481,0 4.628,1.639 5.267,3.856c2.217,0.639 3.857,2.786 3.857,5.268c0,2.481 -1.64,4.628 -3.857,5.267c-0.639,2.217 -2.786,3.857 -5.267,3.857c-2.482,0 -4.629,-1.64 -5.268,-3.857c-2.217,-0.639 -3.856,-2.786 -3.856,-5.267c0,-2.482 1.639,-4.629 3.856,-5.268Z" style="fill:#fff;"/><path d="M25.011,31.748c0.548,-1.9 2.389,-3.306 4.516,-3.306c2.127,0 3.968,1.406 4.516,3.306c1.901,0.548 3.306,2.389 3.306,4.516c0,2.127 -1.405,3.968 -3.306,4.516c-0.548,1.9 -2.389,3.306 -4.516,3.306c-2.127,0 -3.968,-1.406 -4.516,-3.306c-1.9,-0.548 -3.306,-2.389 -3.306,-4.516c0,-2.127 1.406,-3.968 3.306,-4.516Z" style="fill:#fff;"/><path d="M28.195,35.841c0.548,-1.9 2.389,-3.306 4.516,-3.306c2.127,0 3.968,1.406 4.516,3.306c1.901,0.548 3.306,2.389 3.306,4.516c0,2.128 -1.405,3.969 -3.306,4.516c-0.548,1.901 -2.389,3.306 -4.516,3.306c-2.127,0 -3.968,-1.405 -4.516,-3.306c-1.9,-0.547 -3.306,-2.388 -3.306,-4.516c0,-2.127 1.406,-3.968 3.306,-4.516Z" style="fill:#fff;"/></g></svg>