<?xml version="1.0" encoding="UTF-8" standalone="no"?><!DOCTYPE svg PUBLIC "-//W3C//DTD SVG 1.1//EN" "http://www.w3.org/Graphics/SVG/1.1/DTD/svg11.dtd"><svg width="100%" height="100%" viewBox="0 0 48 72" version="1.1" xmlns="http://www.w3.org/2000/svg" xmlns:xlink="http://www.w3.org/1999/xlink" xml:space="preserve" xmlns:serif="http://www.serif.com/" style="fill-rule:evenodd;clip-rule:evenodd;stroke-linejoin:round;stroke-miterlimit:1.41421;"><rect id="bucket" x="0" y="0" width="48" height="72" style="fill:none;"/><path d="M5.1,32.445c-0.007,-0.106 -0.01,-0.212 -0.01,-0.319c0,-5.532 8.304,-10.024 18.532,-10.024c10.227,0 18.531,4.492 18.531,10.024c0,0.107 -0.003,0.213 -0.009,0.319l0.009,0l-0.017,0.115c-0.021,0.259 -0.059,0.516 -0.116,0.77l-4.128,27.546l-0.005,0.035l-0.002,0.013l-0.051,0.344l-0.017,0c-0.908,3.801 -6.922,6.742 -14.195,6.742c-7.274,0 -13.287,-2.941 -14.196,-6.742l-0.012,0l-0.028,-0.184c-0.024,-0.122 -0.042,-0.246 -0.055,-0.369l-4.108,-27.383c-0.056,-0.255 -0.095,-0.513 -0.115,-0.773l-0.018,-0.114l0.01,0Z"/><path d="M8.622,38.01c0.619,-1.53 1.891,-2.722 3.448,-3.171c0.639,-2.217 2.786,-3.856 5.268,-3.856c2.154,0 4.057,1.236 4.939,3.012c0.582,-1.082 1.565,-1.91 2.734,-2.247c0.548,-1.9 2.389,-3.306 4.516,-3.306c2.127,0 3.968,1.406 4.516,3.306c1.783,0.514 3.131,2.166 3.29,4.125c0.836,0.265 1.57,0.781 2.124,1.459c-3.254,2.888 -9.131,4.818 -15.835,4.818c-6.165,0 -11.631,-1.632 -15,-4.14Z" style="fill:#e0f;"/></svg>