<?xml version="1.0" encoding="UTF-8" standalone="no"?><!DOCTYPE svg PUBLIC "-//W3C//DTD SVG 1.1//EN" "http://www.w3.org/Graphics/SVG/1.1/DTD/svg11.dtd"><svg width="100%" height="100%" viewBox="0 0 48 55" version="1.1" xmlns="http://www.w3.org/2000/svg" xmlns:xlink="http://www.w3.org/1999/xlink" xml:space="preserve" xmlns:serif="http://www.serif.com/" style="fill-rule:evenodd;clip-rule:evenodd;stroke-linejoin:round;stroke-miterlimit:1.41421;"><path d="M39.429,10.286l-5.143,0l0,-4.286c0,-1.42 -1.152,-2.571 -2.572,-2.571l-29.143,0c-1.42,0 -2.571,1.151 -2.571,2.571l0,42.857c0,1.42 1.151,2.572 2.571,2.572l29.143,0c1.42,0 2.572,-1.152 2.572,-2.572l0,-4.512l8.636,-3.854c3.085,-1.377 5.078,-4.449 5.078,-7.827l0,-13.807c0,-4.726 -3.845,-8.571 -8.571,-8.571Zm1.714,22.378c-0.001,0.675 -0.399,1.289 -1.016,1.565l-5.841,2.607l0,-19.693l5.143,0c0.945,0 1.714,0.769 1.714,1.714l0,13.807Zm-18.857,8.479c-0.947,0 -1.715,-0.768 -1.715,-1.714l0,-24c0,-0.947 0.768,-1.715 1.715,-1.715c0.946,0 1.714,0.768 1.714,1.715l0,24c0,0.946 -0.768,1.714 -1.714,1.714Zm-10.286,0c-0.947,0 -1.714,-0.768 -1.714,-1.714l0,-24c0,-0.947 0.767,-1.715 1.714,-1.715c0.947,0 1.714,0.768 1.714,1.715l0,24c0,0.946 -0.767,1.714 -1.714,1.714Z" style="fill-rule:nonzero;"/></svg>