<?xml version="1.0" encoding="UTF-8" standalone="no"?><!DOCTYPE svg PUBLIC "-//W3C//DTD SVG 1.1//EN" "http://www.w3.org/Graphics/SVG/1.1/DTD/svg11.dtd"><svg width="100%" height="100%" viewBox="0 0 24 24" version="1.1" xmlns="http://www.w3.org/2000/svg" xmlns:xlink="http://www.w3.org/1999/xlink" xml:space="preserve" xmlns:serif="http://www.serif.com/" style="fill-rule:evenodd;clip-rule:evenodd;stroke-linejoin:round;stroke-miterlimit:1.41421;"><path d="M13.084,24c3.692,0 7.078,-1.678 9.321,-4.443c1.325,-1.632 -0.12,-4.018 -2.168,-3.628c-3.86,0.735 -7.419,-2.215 -7.419,-6.131c0,-2.269 1.222,-4.326 3.161,-5.429c1.816,-1.034 1.36,-3.787 -0.704,-4.169c-0.722,-0.133 -1.456,-0.2 -2.191,-0.2c-6.626,0 -12,5.371 -12,12c0,6.626 5.371,12 12,12Zm0,-21.75c0.609,0 1.205,0.056 1.782,0.163c-2.566,1.461 -4.298,4.221 -4.298,7.385c0,5.337 4.859,9.338 10.09,8.341c-1.787,2.203 -4.516,3.611 -7.574,3.611c-5.384,0 -9.75,-4.365 -9.75,-9.75c0,-5.385 4.366,-9.75 9.75,-9.75Z" style="fill-rule:nonzero;"/></svg>