<?xml version="1.0" encoding="UTF-8" standalone="no"?><!DOCTYPE svg PUBLIC "-//W3C//DTD SVG 1.1//EN" "http://www.w3.org/Graphics/SVG/1.1/DTD/svg11.dtd"><svg width="100%" height="100%" viewBox="0 0 72 72" version="1.1" xmlns="http://www.w3.org/2000/svg" xmlns:xlink="http://www.w3.org/1999/xlink" xml:space="preserve" xmlns:serif="http://www.serif.com/" style="fill-rule:evenodd;clip-rule:evenodd;stroke-linejoin:round;stroke-miterlimit:1.41421;"><rect id="promotion" x="0" y="0" width="72" height="72" style="fill:none;"/><path d="M8.773,62.694c0,2.158 1.744,3.902 3.902,3.902l19.506,0l0,-19.507l-23.408,0l0,15.605Z"/><path d="M39.983,66.596l19.506,0c2.158,0 3.902,-1.744 3.902,-3.902l0,-15.605l-23.408,0l0,19.507Z"/><path d="M58.258,27.583l5.133,0c2.157,0 3.901,1.744 3.901,3.902l0,9.753c0,1.072 -0.878,1.95 -1.951,1.95l-58.518,0c-1.073,0 -1.951,-0.878 -1.951,-1.95l0,-9.753c0,-2.158 1.743,-3.902 3.901,-3.902l49.485,0Z"/><path d="M23.635,27.583l-9.485,0c-0.768,-1.475 -1.232,-3.109 -1.232,-4.876c0,-5.913 4.816,-10.729 10.729,-10.729c5.071,0 8.351,2.597 12.557,8.327c4.206,-5.73 7.485,-8.327 12.557,-8.327c5.913,0 10.728,4.816 10.728,10.729c0,1.767 -0.475,3.401 -1.231,4.876l-9.497,0c2.694,0 4.876,-2.182 4.876,-4.876c0,-2.694 -2.182,-4.877 -4.876,-4.877c-2.487,0 -4.23,0.427 -10.497,9.753l-4.133,0c-6.278,-9.35 -8.07,-9.753 -10.496,-9.753c-2.695,0 -4.877,2.183 -4.877,4.877c0,2.694 2.182,4.876 4.877,4.876Z" style="fill:#e0f;"/></svg>