<?xml version="1.0" encoding="UTF-8" standalone="no"?><!DOCTYPE svg PUBLIC "-//W3C//DTD SVG 1.1//EN" "http://www.w3.org/Graphics/SVG/1.1/DTD/svg11.dtd"><svg width="100%" height="100%" viewBox="0 0 72 72" version="1.1" xmlns="http://www.w3.org/2000/svg" xmlns:xlink="http://www.w3.org/1999/xlink" xml:space="preserve" xmlns:serif="http://www.serif.com/" style="fill-rule:evenodd;clip-rule:evenodd;stroke-linejoin:round;stroke-miterlimit:1.41421;"><rect id="promotion" x="0" y="0" width="72" height="72" style="fill:none;"/><path d="M14.174,7.482c-0.408,-0.425 -0.643,-0.923 -0.643,-1.456c0,-1.55 1.99,-2.808 4.44,-2.808c2.45,0 4.439,1.258 4.439,2.808c0,0.533 -0.235,1.031 -0.643,1.456c0.408,0.424 0.643,0.922 0.643,1.455c0,0.781 -0.505,1.488 -1.319,1.997c-0.001,0.02 -0.003,0.039 -0.005,0.058l0.005,0.001c0,0 0.135,4.359 0.778,6.928c0.599,2.398 3.187,5.874 3.187,11.197c0,0.108 -0.003,0.215 -0.01,0.321l0.01,0l0,26.52l-0.002,0c-0.099,1.913 -3.235,3.45 -7.083,3.45c-3.848,0 -6.984,-1.537 -7.083,-3.45l-0.002,0l0,-26.52l0.01,0c-0.007,-0.106 -0.01,-0.213 -0.01,-0.321c0,-5.323 2.587,-8.799 3.187,-11.197c0.642,-2.569 0.777,-6.928 0.777,-6.928l0.006,-0.001c-0.003,-0.019 -0.004,-0.038 -0.005,-0.058c-0.815,-0.509 -1.32,-1.216 -1.32,-1.997c0,-0.533 0.235,-1.031 0.643,-1.455Z"/><path d="M30.581,7.482c-0.408,-0.425 -0.643,-0.923 -0.643,-1.456c0,-1.55 1.99,-2.808 4.44,-2.808c2.45,0 4.439,1.258 4.439,2.808c0,0.533 -0.235,1.031 -0.643,1.456c0.408,0.424 0.643,0.922 0.643,1.455c0,0.781 -0.505,1.488 -1.319,1.997c-0.001,0.02 -0.003,0.039 -0.005,0.058l0.005,0.001c0,0 0.135,4.359 0.778,6.928c0.599,2.398 3.187,5.874 3.187,11.197c0,0.108 -0.003,0.215 -0.01,0.321l0.01,0l0,26.52l-0.002,0c-0.099,1.913 -3.235,3.45 -7.083,3.45c-3.848,0 -6.984,-1.537 -7.083,-3.45l-0.002,0l0,-26.52l0.01,0c-0.007,-0.106 -0.01,-0.213 -0.01,-0.321c0,-5.323 2.587,-8.799 3.187,-11.197c0.642,-2.569 0.777,-6.928 0.777,-6.928l0.006,-0.001c-0.003,-0.019 -0.004,-0.038 -0.005,-0.058c-0.815,-0.509 -1.32,-1.216 -1.32,-1.997c0,-0.533 0.235,-1.031 0.643,-1.455Z"/><path d="M48.168,7.482c-0.408,-0.425 -0.643,-0.923 -0.643,-1.456c0,-1.55 1.99,-2.808 4.44,-2.808c2.45,0 4.439,1.258 4.439,2.808c0,0.533 -0.235,1.031 -0.642,1.456c0.407,0.424 0.642,0.922 0.642,1.455c0,0.781 -0.505,1.488 -1.319,1.997c-0.001,0.02 -0.003,0.039 -0.005,0.058l0.005,0.001c0,0 0.135,4.359 0.778,6.928c0.6,2.398 3.187,5.874 3.187,11.197c0,0.108 -0.003,0.215 -0.01,0.321l0.01,0l0,26.52l-0.002,0c-0.099,1.913 -3.235,3.45 -7.083,3.45c-3.848,0 -6.984,-1.537 -7.083,-3.45l-0.002,0l0,-26.52l0.01,0c-0.007,-0.106 -0.01,-0.213 -0.01,-0.321c0,-5.323 2.587,-8.799 3.187,-11.197c0.642,-2.569 0.777,-6.928 0.777,-6.928l0.006,-0.001c-0.002,-0.019 -0.004,-0.038 -0.005,-0.058c-0.815,-0.509 -1.32,-1.216 -1.32,-1.997c0,-0.533 0.235,-1.031 0.643,-1.455Z"/><g><path d="M17.1,34.135c-0.007,-0.106 -0.01,-0.213 -0.01,-0.32c0,-5.532 8.304,-10.023 18.532,-10.023c10.227,0 18.531,4.491 18.531,10.023c0,0.107 -0.003,0.214 -0.009,0.32l0.009,0l-0.017,0.114c-0.021,0.259 -0.059,0.516 -0.116,0.77l-4.128,27.546l-0.005,0.035l-0.002,0.013l-0.051,0.344l-0.017,0c-0.908,3.802 -6.922,6.742 -14.195,6.742c-7.274,0 -13.287,-2.94 -14.196,-6.742l-0.012,0l-0.028,-0.184c-0.024,-0.122 -0.042,-0.245 -0.055,-0.369l-4.108,-27.383c-0.056,-0.255 -0.095,-0.512 -0.115,-0.772l-0.018,-0.114l0.01,0Z"/><path d="M35.875,21.792l0.252,0.003l0.252,0.004l0.251,0.006l0.25,0.008l0.249,0.009l0.248,0.012l0.248,0.012l0.247,0.015l0.246,0.016l0.245,0.018l0.244,0.019l0.243,0.021l0.243,0.023l0.241,0.024l0.241,0.026l0.239,0.027l0.239,0.029l0.237,0.03l0.237,0.032l0.235,0.034l0.234,0.035l0.234,0.037l0.232,0.038l0.231,0.04l0.23,0.041l0.229,0.043l0.227,0.044l0.227,0.046l0.225,0.047l0.224,0.049l0.223,0.05l0.222,0.052l0.22,0.053l0.22,0.054l0.217,0.056l0.217,0.058l0.215,0.059l0.214,0.06l0.213,0.061l0.211,0.063l0.21,0.065l0.208,0.066l0.207,0.067l0.206,0.068l0.204,0.07l0.203,0.071l0.201,0.073l0.2,0.074l0.198,0.075l0.197,0.077l0.196,0.078l0.193,0.079l0.192,0.081l0.191,0.082l0.189,0.083l0.187,0.085l0.186,0.086l0.184,0.087l0.182,0.089l0.181,0.09l0.179,0.091l0.178,0.093l0.175,0.094l0.174,0.095l0.172,0.096l0.171,0.098l0.168,0.099l0.167,0.101l0.165,0.102l0.163,0.103l0.161,0.104l0.16,0.106l0.157,0.107l0.156,0.108l0.153,0.11l0.152,0.111l0.15,0.112l0.147,0.114l0.146,0.115l0.144,0.117l0.141,0.117l0.14,0.12l0.137,0.12l0.135,0.122l0.133,0.123l0.131,0.125l0.129,0.127l0.126,0.127l0.124,0.129l0.122,0.131l0.119,0.131l0.117,0.134l0.115,0.135l0.112,0.136l0.11,0.138l0.107,0.139l0.104,0.141l0.102,0.142l0.1,0.144l0.096,0.145l0.094,0.146l0.091,0.149l0.088,0.149l0.085,0.152l0.082,0.152l0.079,0.154l0.076,0.156l0.073,0.157l0.069,0.158l0.067,0.16l0.063,0.161l0.059,0.162l0.056,0.164l0.053,0.165l0.049,0.166l0.045,0.168l0.042,0.169l0.038,0.169l0.034,0.171l0.03,0.171l0.026,0.173l0.023,0.173l0.018,0.168l0.008,0.094l0.006,0.087l0.006,0.087l0.005,0.088l0.003,0.088l0.003,0.088l0.001,0.088l0.001,0.09l-0.001,0.107l-0.002,0.109l0,0.002l0.001,0.015l-0.001,0.191l-0.019,0.19l-0.008,0.054l-0.005,0.053l-0.014,0.132l-0.016,0.132l-0.019,0.131l-0.02,0.13l-0.023,0.13l-0.026,0.13l-0.011,0.053l-4.118,27.483l-0.007,0.043l-0.002,0.016l-0.05,0.336l-0.037,0.186l-0.055,0.181l-0.027,0.068l-0.035,0.117l-0.04,0.126l-0.042,0.125l-0.044,0.125l-0.047,0.123l-0.05,0.122l-0.052,0.121l-0.054,0.12l-0.056,0.119l-0.058,0.118l-0.06,0.116l-0.063,0.116l-0.064,0.115l-0.067,0.113l-0.068,0.112l-0.07,0.111l-0.072,0.11l-0.074,0.109l-0.076,0.107l-0.078,0.107l-0.079,0.105l-0.081,0.104l-0.083,0.103l-0.084,0.102l-0.086,0.101l-0.087,0.1l-0.089,0.099l-0.091,0.097l-0.092,0.097l-0.094,0.095l-0.095,0.094l-0.096,0.094l-0.098,0.092l-0.1,0.092l-0.1,0.09l-0.103,0.089l-0.103,0.088l-0.105,0.087l-0.106,0.087l-0.108,0.085l-0.109,0.084l-0.11,0.084l-0.111,0.082l-0.113,0.081l-0.114,0.081l-0.115,0.079l-0.116,0.078l-0.118,0.078l-0.118,0.077l-0.12,0.075l-0.121,0.075l-0.123,0.074l-0.123,0.073l-0.125,0.072l-0.125,0.071l-0.127,0.07l-0.128,0.069l-0.129,0.068l-0.131,0.068l-0.131,0.066l-0.132,0.066l-0.134,0.064l-0.134,0.064l-0.136,0.063l-0.136,0.062l-0.138,0.061l-0.139,0.06l-0.139,0.059l-0.141,0.058l-0.142,0.058l-0.142,0.056l-0.144,0.055l-0.144,0.055l-0.146,0.054l-0.146,0.052l-0.148,0.052l-0.148,0.051l-0.149,0.05l-0.151,0.049l-0.151,0.048l-0.152,0.047l-0.153,0.047l-0.154,0.045l-0.154,0.044l-0.156,0.044l-0.156,0.042l-0.157,0.042l-0.158,0.04l-0.159,0.04l-0.16,0.038l-0.161,0.038l-0.161,0.036l-0.162,0.036l-0.163,0.035l-0.164,0.033l-0.164,0.033l-0.165,0.032l-0.166,0.031l-0.167,0.029l-0.167,0.029l-0.168,0.028l-0.169,0.026l-0.17,0.026l-0.17,0.024l-0.171,0.024l-0.171,0.022l-0.172,0.022l-0.173,0.02l-0.174,0.02l-0.174,0.018l-0.175,0.017l-0.175,0.016l-0.176,0.015l-0.176,0.014l-0.177,0.013l-0.178,0.012l-0.178,0.011l-0.179,0.01l-0.18,0.008l-0.179,0.007l-0.181,0.007l-0.181,0.005l-0.181,0.004l-0.182,0.003l-0.182,0.001l-0.183,0.001l-0.183,-0.001l-0.183,-0.001l-0.182,-0.003l-0.181,-0.004l-0.181,-0.005l-0.18,-0.007l-0.18,-0.007l-0.179,-0.008l-0.179,-0.01l-0.179,-0.011l-0.177,-0.012l-0.177,-0.013l-0.177,-0.014l-0.176,-0.015l-0.175,-0.016l-0.175,-0.017l-0.174,-0.018l-0.174,-0.02l-0.172,-0.02l-0.173,-0.022l-0.171,-0.022l-0.171,-0.024l-0.17,-0.024l-0.17,-0.026l-0.168,-0.026l-0.169,-0.028l-0.167,-0.029l-0.167,-0.029l-0.166,-0.031l-0.165,-0.032l-0.164,-0.033l-0.164,-0.033l-0.163,-0.035l-0.162,-0.036l-0.161,-0.036l-0.161,-0.038l-0.159,-0.038l-0.159,-0.04l-0.158,-0.04l-0.158,-0.042l-0.156,-0.042l-0.155,-0.044l-0.155,-0.044l-0.154,-0.045l-0.153,-0.047l-0.152,-0.047l-0.151,-0.048l-0.15,-0.049l-0.15,-0.05l-0.148,-0.051l-0.147,-0.052l-0.147,-0.052l-0.145,-0.054l-0.145,-0.055l-0.144,-0.055l-0.142,-0.056l-0.142,-0.058l-0.141,-0.058l-0.139,-0.059l-0.139,-0.06l-0.137,-0.061l-0.137,-0.062l-0.136,-0.063l-0.134,-0.064l-0.133,-0.064l-0.133,-0.066l-0.131,-0.066l-0.13,-0.068l-0.129,-0.068l-0.128,-0.069l-0.127,-0.07l-0.126,-0.071l-0.125,-0.072l-0.123,-0.073l-0.122,-0.074l-0.121,-0.075l-0.12,-0.075l-0.119,-0.077l-0.118,-0.078l-0.116,-0.078l-0.115,-0.079l-0.114,-0.081l-0.113,-0.081l-0.111,-0.082l-0.11,-0.084l-0.109,-0.084l-0.108,-0.085l-0.106,-0.087l-0.105,-0.087l-0.103,-0.088l-0.102,-0.089l-0.101,-0.09l-0.099,-0.092l-0.098,-0.092l-0.097,-0.093l-0.095,-0.095l-0.094,-0.095l-0.092,-0.097l-0.09,-0.097l-0.089,-0.099l-0.088,-0.1l-0.086,-0.101l-0.084,-0.102l-0.083,-0.103l-0.081,-0.104l-0.079,-0.105l-0.078,-0.107l-0.075,-0.107l-0.074,-0.109l-0.072,-0.11l-0.071,-0.111l-0.068,-0.112l-0.067,-0.114l-0.064,-0.114l-0.062,-0.116l-0.061,-0.116l-0.058,-0.118l-0.056,-0.119l-0.054,-0.12l-0.052,-0.121l-0.049,-0.122l-0.047,-0.123l-0.045,-0.125l-0.042,-0.125l-0.04,-0.126l-0.037,-0.127l-0.006,-0.022l-0.015,-0.036l-0.054,-0.181l-0.037,-0.186l-0.023,-0.152l-0.015,-0.081l-0.022,-0.135l-0.019,-0.136l-0.009,-0.082l-4.093,-27.29l-0.012,-0.052l-0.025,-0.131l-0.023,-0.13l-0.021,-0.131l-0.019,-0.132l-0.016,-0.132l-0.014,-0.132l-0.004,-0.054l-0.008,-0.053l-0.02,-0.19l-0.001,-0.191l0.002,-0.015l0,-0.002l-0.003,-0.108l-0.001,-0.109l0.001,-0.089l0.001,-0.088l0.003,-0.088l0.004,-0.088l0.004,-0.087l0.006,-0.088l0.007,-0.088l0.008,-0.093l0.018,-0.168l0.022,-0.173l0.026,-0.173l0.03,-0.171l0.035,-0.171l0.037,-0.17l0.042,-0.168l0.045,-0.167l0.049,-0.167l0.053,-0.165l0.056,-0.164l0.06,-0.162l0.063,-0.161l0.066,-0.16l0.07,-0.158l0.072,-0.157l0.076,-0.156l0.079,-0.154l0.083,-0.153l0.085,-0.151l0.088,-0.149l0.091,-0.149l0.093,-0.146l0.097,-0.145l0.099,-0.144l0.102,-0.142l0.104,-0.141l0.107,-0.139l0.11,-0.138l0.112,-0.136l0.115,-0.135l0.117,-0.134l0.119,-0.131l0.122,-0.131l0.124,-0.129l0.126,-0.127l0.129,-0.127l0.131,-0.124l0.133,-0.124l0.135,-0.122l0.138,-0.12l0.139,-0.12l0.142,-0.117l0.143,-0.117l0.146,-0.115l0.148,-0.114l0.149,-0.112l0.152,-0.111l0.154,-0.11l0.155,-0.108l0.158,-0.107l0.159,-0.106l0.161,-0.104l0.163,-0.103l0.165,-0.102l0.167,-0.101l0.169,-0.099l0.17,-0.098l0.172,-0.096l0.174,-0.095l0.176,-0.094l0.177,-0.093l0.179,-0.091l0.181,-0.09l0.182,-0.089l0.184,-0.087l0.186,-0.086l0.187,-0.085l0.189,-0.083l0.191,-0.082l0.192,-0.081l0.194,-0.079l0.195,-0.078l0.197,-0.077l0.198,-0.075l0.2,-0.074l0.201,-0.073l0.203,-0.071l0.204,-0.07l0.206,-0.068l0.207,-0.068l0.208,-0.065l0.21,-0.065l0.211,-0.063l0.213,-0.061l0.214,-0.06l0.215,-0.059l0.217,-0.058l0.218,-0.056l0.219,-0.054l0.22,-0.053l0.222,-0.052l0.223,-0.05l0.224,-0.049l0.225,-0.047l0.227,-0.046l0.228,-0.044l0.228,-0.043l0.23,-0.041l0.231,-0.04l0.233,-0.038l0.233,-0.037l0.234,-0.035l0.236,-0.034l0.236,-0.032l0.238,-0.03l0.238,-0.029l0.24,-0.027l0.24,-0.026l0.242,-0.024l0.242,-0.023l0.243,-0.021l0.244,-0.019l0.245,-0.018l0.246,-0.016l0.247,-0.015l0.248,-0.012l0.248,-0.012l0.25,-0.009l0.25,-0.008l0.251,-0.006l0.251,-0.004l0.253,-0.003l0.253,0l0.253,0Zm-0.493,2l-0.238,0.003l-0.238,0.004l-0.237,0.006l-0.237,0.007l-0.235,0.009l-0.235,0.01l-0.234,0.012l-0.233,0.014l-0.232,0.015l-0.231,0.017l-0.231,0.018l-0.229,0.02l-0.229,0.021l-0.227,0.023l-0.227,0.024l-0.226,0.026l-0.224,0.027l-0.224,0.029l-0.222,0.03l-0.222,0.032l-0.22,0.033l-0.219,0.035l-0.218,0.036l-0.217,0.037l-0.216,0.039l-0.215,0.04l-0.213,0.041l-0.212,0.043l-0.211,0.044l-0.21,0.046l-0.209,0.047l-0.207,0.048l-0.206,0.05l-0.204,0.05l-0.203,0.053l-0.202,0.053l-0.201,0.055l-0.199,0.056l-0.197,0.057l-0.197,0.059l-0.194,0.059l-0.194,0.061l-0.191,0.063l-0.191,0.063l-0.188,0.065l-0.188,0.065l-0.185,0.067l-0.184,0.069l-0.183,0.069l-0.181,0.07l-0.179,0.072l-0.178,0.073l-0.175,0.074l-0.175,0.075l-0.172,0.076l-0.171,0.077l-0.169,0.078l-0.167,0.079l-0.166,0.081l-0.163,0.081l-0.162,0.083l-0.16,0.083l-0.158,0.085l-0.157,0.085l-0.154,0.087l-0.153,0.088l-0.15,0.088l-0.149,0.09l-0.146,0.09l-0.145,0.091l-0.143,0.093l-0.14,0.093l-0.139,0.094l-0.137,0.096l-0.134,0.096l-0.132,0.097l-0.131,0.097l-0.128,0.099l-0.126,0.1l-0.124,0.1l-0.121,0.101l-0.12,0.102l-0.117,0.103l-0.115,0.104l-0.113,0.105l-0.11,0.105l-0.109,0.106l-0.105,0.107l-0.104,0.108l-0.101,0.108l-0.099,0.109l-0.096,0.11l-0.095,0.111l-0.091,0.111l-0.089,0.112l-0.087,0.113l-0.084,0.113l-0.082,0.115l-0.079,0.114l-0.077,0.116l-0.074,0.116l-0.072,0.117l-0.069,0.117l-0.066,0.118l-0.064,0.119l-0.061,0.119l-0.059,0.12l-0.056,0.12l-0.053,0.121l-0.05,0.121l-0.048,0.122l-0.045,0.123l-0.042,0.123l-0.039,0.124l-0.037,0.124l-0.034,0.124l-0.031,0.125l-0.028,0.126l-0.025,0.126l-0.022,0.127l-0.02,0.127l-0.016,0.127l-0.013,0.128l-0.006,0.064l-0.005,0.064l-0.004,0.064l-0.004,0.065l-0.002,0.064l-0.002,0.065l-0.001,0.065l-0.001,0.064l0.001,0.08l0.002,0.08l0.003,0.08l0.004,0.08l-0.01,0l0.018,0.114l0.008,0.097l0.01,0.097l0.012,0.097l0.014,0.097l0.015,0.096l0.017,0.096l0.019,0.096l0.02,0.096l4.108,27.383l0.01,0.093l0.013,0.092l0.015,0.092l0.017,0.092l0.028,0.184l0.012,0l0.022,0.089l0.024,0.089l0.026,0.088l0.028,0.088l0.03,0.088l0.031,0.087l0.033,0.087l0.035,0.086l0.037,0.087l0.039,0.085l0.04,0.086l0.042,0.085l0.044,0.085l0.045,0.084l0.048,0.084l0.048,0.083l0.051,0.083l0.052,0.083l0.054,0.082l0.056,0.082l0.057,0.082l0.059,0.08l0.061,0.081l0.062,0.08l0.064,0.08l0.065,0.079l0.067,0.078l0.069,0.078l0.07,0.078l0.072,0.077l0.073,0.077l0.075,0.076l0.076,0.076l0.078,0.075l0.079,0.075l0.081,0.074l0.082,0.074l0.083,0.073l0.086,0.072l0.086,0.072l0.088,0.072l0.09,0.071l0.09,0.07l0.093,0.07l0.093,0.069l0.095,0.068l0.096,0.068l0.098,0.068l0.099,0.067l0.101,0.066l0.101,0.065l0.103,0.065l0.105,0.065l0.105,0.063l0.107,0.064l0.108,0.062l0.109,0.062l0.111,0.061l0.112,0.06l0.113,0.06l0.114,0.059l0.116,0.059l0.116,0.058l0.118,0.057l0.119,0.056l0.12,0.056l0.122,0.055l0.122,0.054l0.124,0.053l0.124,0.053l0.126,0.052l0.127,0.052l0.128,0.05l0.129,0.05l0.13,0.049l0.131,0.049l0.132,0.047l0.133,0.047l0.134,0.046l0.135,0.045l0.137,0.045l0.137,0.043l0.138,0.043l0.139,0.042l0.14,0.041l0.141,0.041l0.142,0.039l0.142,0.039l0.144,0.038l0.145,0.037l0.145,0.036l0.146,0.035l0.147,0.035l0.148,0.034l0.149,0.032l0.15,0.032l0.15,0.031l0.152,0.03l0.152,0.029l0.153,0.029l0.153,0.027l0.155,0.026l0.155,0.026l0.156,0.025l0.156,0.023l0.158,0.023l0.158,0.022l0.158,0.021l0.16,0.019l0.16,0.019l0.16,0.018l0.162,0.017l0.162,0.016l0.162,0.015l0.164,0.014l0.163,0.013l0.165,0.012l0.165,0.011l0.165,0.01l0.167,0.009l0.166,0.008l0.168,0.007l0.167,0.006l0.169,0.004l0.168,0.004l0.17,0.003l0.169,0.001l0.171,0.001l0.17,-0.001l0.17,-0.001l0.169,-0.003l0.169,-0.004l0.168,-0.004l0.168,-0.006l0.167,-0.007l0.167,-0.008l0.166,-0.009l0.165,-0.01l0.165,-0.011l0.165,-0.012l0.164,-0.013l0.163,-0.014l0.163,-0.015l0.162,-0.016l0.161,-0.017l0.161,-0.018l0.16,-0.019l0.159,-0.019l0.159,-0.021l0.158,-0.022l0.157,-0.023l0.157,-0.023l0.156,-0.025l0.155,-0.026l0.154,-0.026l0.154,-0.027l0.153,-0.029l0.152,-0.029l0.151,-0.03l0.15,-0.031l0.15,-0.032l0.149,-0.032l0.148,-0.034l0.147,-0.035l0.146,-0.035l0.146,-0.036l0.144,-0.037l0.144,-0.038l0.143,-0.039l0.142,-0.039l0.14,-0.041l0.14,-0.041l0.14,-0.042l0.138,-0.043l0.137,-0.043l0.136,-0.045l0.135,-0.045l0.134,-0.046l0.133,-0.047l0.132,-0.047l0.132,-0.049l0.13,-0.049l0.129,-0.05l0.128,-0.05l0.126,-0.052l0.126,-0.052l0.125,-0.053l0.123,-0.053l0.123,-0.054l0.121,-0.055l0.12,-0.056l0.119,-0.056l0.118,-0.057l0.117,-0.058l0.115,-0.059l0.114,-0.059l0.113,-0.06l0.112,-0.06l0.111,-0.061l0.109,-0.062l0.108,-0.062l0.107,-0.064l0.106,-0.063l0.104,-0.065l0.103,-0.065l0.102,-0.065l0.1,-0.066l0.099,-0.067l0.098,-0.068l0.096,-0.068l0.095,-0.068l0.094,-0.069l0.092,-0.07l0.091,-0.07l0.089,-0.071l0.088,-0.072l0.087,-0.072l0.085,-0.072l0.084,-0.073l0.082,-0.074l0.08,-0.074l0.08,-0.075l0.077,-0.075l0.077,-0.076l0.074,-0.076l0.074,-0.077l0.071,-0.077l0.07,-0.078l0.069,-0.078l0.067,-0.078l0.065,-0.079l0.064,-0.08l0.062,-0.08l0.061,-0.081l0.059,-0.08l0.057,-0.082l0.056,-0.082l0.054,-0.082l0.052,-0.083l0.051,-0.083l0.049,-0.083l0.047,-0.084l0.046,-0.084l0.043,-0.085l0.042,-0.085l0.041,-0.086l0.038,-0.085l0.037,-0.087l0.035,-0.086l0.033,-0.087l0.032,-0.087l0.029,-0.088l0.028,-0.088l0.026,-0.088l0.024,-0.089l0.022,-0.089l0.017,0l0.051,-0.344l0.002,-0.013l0.005,-0.035l4.128,-27.546l0.021,-0.095l0.018,-0.096l0.017,-0.096l0.016,-0.096l0.013,-0.096l0.012,-0.097l0.01,-0.097l0.009,-0.097l0.017,-0.114l-0.009,0l0.004,-0.08l0.003,-0.08l0.001,-0.08l0.001,-0.08l0,-0.064l-0.002,-0.065l-0.002,-0.065l-0.002,-0.064l-0.004,-0.065l-0.004,-0.064l-0.005,-0.064l-0.005,-0.064l-0.014,-0.128l-0.016,-0.127l-0.02,-0.127l-0.022,-0.127l-0.025,-0.126l-0.028,-0.126l-0.031,-0.125l-0.034,-0.124l-0.036,-0.124l-0.04,-0.124l-0.042,-0.123l-0.045,-0.123l-0.048,-0.122l-0.05,-0.121l-0.053,-0.121l-0.056,-0.12l-0.058,-0.12l-0.062,-0.119l-0.063,-0.119l-0.067,-0.118l-0.069,-0.117l-0.071,-0.117l-0.075,-0.116l-0.076,-0.116l-0.08,-0.114l-0.081,-0.115l-0.085,-0.113l-0.086,-0.113l-0.09,-0.112l-0.091,-0.111l-0.094,-0.111l-0.097,-0.11l-0.098,-0.109l-0.102,-0.108l-0.103,-0.108l-0.106,-0.107l-0.108,-0.106l-0.111,-0.105l-0.113,-0.105l-0.115,-0.104l-0.117,-0.103l-0.119,-0.102l-0.122,-0.101l-0.124,-0.1l-0.126,-0.1l-0.128,-0.099l-0.13,-0.097l-0.133,-0.097l-0.134,-0.096l-0.137,-0.096l-0.138,-0.094l-0.141,-0.093l-0.143,-0.093l-0.144,-0.091l-0.147,-0.09l-0.149,-0.09l-0.15,-0.088l-0.153,-0.088l-0.154,-0.087l-0.156,-0.085l-0.159,-0.085l-0.16,-0.083l-0.161,-0.083l-0.164,-0.081l-0.166,-0.081l-0.167,-0.079l-0.169,-0.078l-0.171,-0.077l-0.172,-0.076l-0.174,-0.075l-0.176,-0.074l-0.178,-0.073l-0.179,-0.072l-0.181,-0.07l-0.182,-0.069l-0.184,-0.069l-0.186,-0.067l-0.187,-0.065l-0.189,-0.065l-0.19,-0.063l-0.192,-0.063l-0.193,-0.061l-0.195,-0.059l-0.196,-0.059l-0.198,-0.057l-0.199,-0.056l-0.2,-0.055l-0.202,-0.053l-0.203,-0.053l-0.205,-0.05l-0.206,-0.05l-0.207,-0.048l-0.208,-0.047l-0.21,-0.046l-0.211,-0.044l-0.212,-0.043l-0.214,-0.041l-0.214,-0.04l-0.216,-0.039l-0.217,-0.037l-0.218,-0.036l-0.22,-0.035l-0.22,-0.033l-0.221,-0.032l-0.223,-0.03l-0.223,-0.029l-0.225,-0.027l-0.226,-0.026l-0.226,-0.024l-0.228,-0.023l-0.228,-0.021l-0.23,-0.02l-0.23,-0.018l-0.232,-0.017l-0.232,-0.015l-0.233,-0.014l-0.234,-0.012l-0.234,-0.01l-0.236,-0.009l-0.236,-0.007l-0.237,-0.006l-0.238,-0.004l-0.239,-0.003l-0.239,0l-0.24,0Z" style="fill:#fff;"/><ellipse cx="35.622" cy="33.815" rx="18.531" ry="10.024"/><clipPath id="_clip1"><ellipse cx="35.622" cy="33.815" rx="18.531" ry="10.024"/></clipPath><g clip-path="url(#_clip1)"><path d="M34.277,35.684c0.582,-1.082 1.565,-1.909 2.734,-2.247c0.548,-1.9 2.389,-3.306 4.516,-3.306c2.127,0 3.968,1.406 4.516,3.306c1.783,0.514 3.131,2.167 3.29,4.126c1.847,0.584 3.2,2.396 3.2,4.484c0,1.027 -7.61,4.566 -15.405,4.587c-8.346,0.021 -16.914,-3.555 -16.914,-4.838c0,-2.481 1.639,-4.629 3.856,-5.268c0.639,-2.216 2.786,-3.856 5.268,-3.856c2.154,0 4.057,1.236 4.939,3.012Z" style="fill:#fff;"/></g></g></svg>