<?xml version="1.0" encoding="UTF-8" standalone="no"?><!DOCTYPE svg PUBLIC "-//W3C//DTD SVG 1.1//EN" "http://www.w3.org/Graphics/SVG/1.1/DTD/svg11.dtd"><svg width="100%" height="100%" viewBox="0 0 24 24" version="1.1" xmlns="http://www.w3.org/2000/svg" xmlns:xlink="http://www.w3.org/1999/xlink" xml:space="preserve" xmlns:serif="http://www.serif.com/" style="fill-rule:evenodd;clip-rule:evenodd;stroke-linejoin:round;stroke-miterlimit:1.41421;"><path d="M0,9.75c0,1.396 0.958,2.559 2.25,2.895l0,9.855l-1.5,0c-0.413,0 -0.75,0.335 -0.75,0.75c0,0.415 0.337,0.75 0.75,0.75l22.5,0c0.416,0 0.75,-0.335 0.75,-0.75c0,-0.415 -0.334,-0.75 -0.75,-0.75l-1.5,0l0,-9.855c1.292,-0.336 2.25,-1.499 2.25,-2.895l0,-0.75l-24,0l0,0.75Zm15,3c1.658,0 3,-1.343 3,-3c0,1.396 0.958,2.559 2.25,2.895l0,9.855l-11.25,0l0,-9.75c1.658,0 3,-1.343 3,-3c0,1.657 1.345,3 3,3Zm-6.75,-0.105l0,9.855l-4.5,0l0,-9.855c1.292,-0.336 2.25,-1.499 2.25,-2.895c0,1.396 0.958,2.559 2.25,2.895Zm12.75,-10.395l-18,0l-3,6l24,0l-3,-6Zm-18,-1.5c0,-0.415 0.337,-0.75 0.75,-0.75l16.5,0c0.416,0 0.75,0.335 0.75,0.75c0,0.415 -0.334,0.75 -0.75,0.75l-16.5,0c-0.413,0 -0.75,-0.335 -0.75,-0.75Z" style="fill-rule:nonzero;"/></svg>