<?xml version="1.0" encoding="UTF-8" standalone="no"?><!DOCTYPE svg PUBLIC "-//W3C//DTD SVG 1.1//EN" "http://www.w3.org/Graphics/SVG/1.1/DTD/svg11.dtd"><svg width="100%" height="100%" viewBox="0 0 24 24" version="1.1" xmlns="http://www.w3.org/2000/svg" xmlns:xlink="http://www.w3.org/1999/xlink" xml:space="preserve" xmlns:serif="http://www.serif.com/" style="fill-rule:evenodd;clip-rule:evenodd;stroke-linejoin:round;stroke-miterlimit:1.41421;"><path d="M0,9.75c0,1.396 0.958,2.559 2.25,2.895l0,9.855l-1.5,0c-0.413,0 -0.75,0.335 -0.75,0.75c0,0.415 0.337,0.75 0.75,0.75l22.5,0c0.416,0 0.75,-0.335 0.75,-0.75c0,-0.415 -0.334,-0.75 -0.75,-0.75l-1.5,0l0,-9.855c1.292,-0.336 2.25,-1.499 2.25,-2.895l0,-0.75l-24,0l0,0.75Zm15,3c1.658,0 3,-1.343 3,-3c0,1.396 0.958,2.559 2.25,2.895l0,9.855l-11.25,0l0,-9.75c1.658,0 3,-1.343 3,-3c0,1.657 1.345,3 3,3Zm-6.75,-0.105l0,9.855l-4.5,0l0,-9.855c1.292,-0.336 2.25,-1.499 2.25,-2.895c0,1.396 0.958,2.559 2.25,2.895Zm12.75,-10.395l-18,0l-3,6l24,0l-3,-6Zm-14.663,1.667l-1.5,3c-0.067,0.132 -0.199,0.208 -0.337,0.208c-0.056,0 -0.113,-0.012 -0.167,-0.04c-0.185,-0.092 -0.261,-0.317 -0.167,-0.502l1.5,-3c0.094,-0.185 0.318,-0.259 0.502,-0.168c0.187,0.092 0.26,0.317 0.169,0.502Zm3,0l-1.5,3c-0.067,0.132 -0.199,0.208 -0.337,0.208c-0.056,0 -0.113,-0.012 -0.167,-0.04c-0.185,-0.092 -0.261,-0.317 -0.167,-0.502l1.5,-3c0.094,-0.185 0.319,-0.259 0.502,-0.168c0.187,0.092 0.26,0.317 0.169,0.502Zm3.038,2.833c0,0.208 -0.167,0.375 -0.375,0.375c-0.207,0 -0.375,-0.167 -0.375,-0.375l0,-3c0,-0.208 0.168,-0.375 0.375,-0.375c0.208,0 0.375,0.167 0.375,0.375l0,3Zm4.307,0.328c-0.059,0.032 -0.12,0.047 -0.182,0.047c-0.132,0 -0.261,-0.07 -0.328,-0.195l-1.641,-3c-0.099,-0.181 -0.032,-0.41 0.15,-0.508c0.178,-0.1 0.41,-0.035 0.509,0.148l1.641,3c0.097,0.181 0.032,0.41 -0.149,0.508Zm2.985,0.007c-0.053,0.028 -0.108,0.04 -0.167,0.04c-0.138,0 -0.27,-0.076 -0.334,-0.208l-1.5,-3c-0.094,-0.185 -0.018,-0.41 0.167,-0.502c0.182,-0.093 0.41,-0.018 0.504,0.168l1.5,3c0.091,0.185 0.017,0.41 -0.17,0.502Zm-13.292,11.029l0,-1.728c-0.22,-0.132 -0.375,-0.361 -0.375,-0.636c0,-0.415 0.337,-0.75 0.75,-0.75c0.416,0 0.75,0.335 0.75,0.75c0,0.275 -0.154,0.504 -0.375,0.636l0,1.728c0.221,0.132 0.375,0.361 0.375,0.636c0,0.415 -0.334,0.75 -0.75,0.75c-0.413,0 -0.75,-0.335 -0.75,-0.75c0,-0.275 0.155,-0.504 0.375,-0.636Zm-3.375,-17.364c0,-0.415 0.337,-0.75 0.75,-0.75l16.5,0c0.416,0 0.75,0.335 0.75,0.75c0,0.415 -0.334,0.75 -0.75,0.75l-16.5,0c-0.413,0 -0.75,-0.335 -0.75,-0.75Zm10.146,16.015l-0.531,-0.53l2.121,-2.121l0.531,0.53l-2.121,2.121Zm0,2.121l-0.531,-0.53l4.242,-4.242l0.531,0.53l-4.242,4.242Zm3.711,-2.651l0.531,0.53l-2.121,2.121l-0.531,-0.53l2.121,-2.121Z" style="fill-rule:nonzero;"/></svg>