<?xml version="1.0" encoding="UTF-8" standalone="no"?><!DOCTYPE svg PUBLIC "-//W3C//DTD SVG 1.1//EN" "http://www.w3.org/Graphics/SVG/1.1/DTD/svg11.dtd"><svg width="100%" height="100%" viewBox="0 0 48 72" version="1.1" xmlns="http://www.w3.org/2000/svg" xmlns:xlink="http://www.w3.org/1999/xlink" xml:space="preserve" xmlns:serif="http://www.serif.com/" style="fill-rule:evenodd;clip-rule:evenodd;stroke-linejoin:round;stroke-miterlimit:1.41421;"><rect id="water" x="0" y="0" width="48" height="72" style="fill:none;"/><path d="M19.838,20.382c-0.005,-0.031 -0.007,-0.062 -0.007,-0.093c0,-0.867 1.868,-1.57 4.169,-1.57c2.301,0 4.169,0.703 4.169,1.57c0,0.031 -0.002,0.062 -0.007,0.093l0.007,0.001c0,0 0.181,4.386 1.04,6.971c0.801,2.413 4.258,5.911 4.258,11.266c0,0.11 -0.005,0.217 -0.014,0.323l0.014,0l0,26.686l-0.003,0c-0.133,1.925 -4.322,3.472 -9.464,3.472c-5.142,0 -9.331,-1.547 -9.464,-3.472l-0.003,0l0,-26.686l0.014,0c-0.009,-0.106 -0.014,-0.213 -0.014,-0.323c0,-5.355 3.457,-8.853 4.258,-11.266c0.859,-2.585 1.04,-6.971 1.04,-6.971l0.007,-0.001Z"/><ellipse cx="24" cy="17.957" rx="5.605" ry="3.546" style="fill:#e0f;"/><path d="M34.231,10.292c1.245,0.056 2.495,0.716 2.858,1.963c0.965,3.307 -3.874,7.336 -7.471,6.133c-0.793,-0.265 -1.469,-0.874 -1.737,-1.68c-1.023,-3.069 2.875,-6.494 6.35,-6.416Zm-0.191,1.497c-3.308,0.073 -6.858,5.167 -3.28,5.288c2.043,0.069 4.23,-1.394 4.839,-3.389c0.261,-0.855 -0.298,-1.899 -1.559,-1.899Z" style="fill-rule:nonzero;"/><path d="M29.685,43.514c0,-1.569 -1.273,-2.843 -2.842,-2.843l-2.81,0l-2.876,0c-1.569,0 -2.842,1.274 -2.842,2.843l0,14.493c0,1.569 1.273,2.842 2.842,2.842l5.686,0c1.569,0 2.842,-1.273 2.842,-2.842l0,-14.493Z" style="fill:#e0f;"/></svg>