<?xml version="1.0" encoding="UTF-8" standalone="no"?><!DOCTYPE svg PUBLIC "-//W3C//DTD SVG 1.1//EN" "http://www.w3.org/Graphics/SVG/1.1/DTD/svg11.dtd"><svg width="100%" height="100%" viewBox="0 0 48 48" version="1.1" xmlns="http://www.w3.org/2000/svg" xmlns:xlink="http://www.w3.org/1999/xlink" xml:space="preserve" xmlns:serif="http://www.serif.com/" style="fill-rule:evenodd;clip-rule:evenodd;stroke-linejoin:round;stroke-miterlimit:1.41421;"><rect id="whisky" x="0" y="0" width="48" height="48" style="fill:none;"/><path d="M19.549,7.335c-0.479,-0.498 -0.754,-1.082 -0.754,-1.707c0,-1.817 2.332,-3.292 5.205,-3.292c2.873,0 5.205,1.475 5.205,3.292c0,0.625 -0.275,1.209 -0.754,1.707c0.479,0.498 0.754,1.082 0.754,1.706c0,0.966 -0.658,1.834 -1.705,2.437c0.114,0.991 0.268,2.002 0.474,2.828c0.597,2.388 8.933,2.194 8.933,7.496l0,19.422l-0.003,0c-0.098,1.905 -6.062,3.437 -12.813,3.437c-6.75,0 -12.897,-1.532 -12.995,-3.437l-0.003,0c0,0 0,-19.314 0,-19.422c0,-5.302 8.61,-5.108 9.207,-7.496c0.198,-0.79 0.338,-1.75 0.438,-2.699c-1.184,-0.604 -1.943,-1.529 -1.943,-2.566c0,-0.624 0.275,-1.208 0.754,-1.706Z"/><path d="M11.093,25.664l0.003,0c0.098,1.904 6.245,3.436 12.995,3.436c6.75,0 12.714,-1.532 12.813,-3.436l0.003,0l0,9.851l-0.003,0c-0.099,1.905 -6.063,3.436 -12.813,3.436c-6.75,0 -12.897,-1.531 -12.995,-3.436l-0.003,0l0,-9.851Z" style="fill:#e0f;"/></svg>