<?xml version="1.0" encoding="UTF-8" standalone="no"?><!DOCTYPE svg PUBLIC "-//W3C//DTD SVG 1.1//EN" "http://www.w3.org/Graphics/SVG/1.1/DTD/svg11.dtd"><svg width="100%" height="100%" viewBox="0 0 48 72" version="1.1" xmlns="http://www.w3.org/2000/svg" xmlns:xlink="http://www.w3.org/1999/xlink" xml:space="preserve" xmlns:serif="http://www.serif.com/" style="fill-rule:evenodd;clip-rule:evenodd;stroke-linejoin:round;stroke-miterlimit:1.41421;"><rect id="soda" x="0" y="0" width="48" height="72" style="fill:none;"/><path d="M20.348,27.333c-0.005,-0.036 -0.007,-0.072 -0.007,-0.108c0,-1.01 1.64,-1.83 3.659,-1.83c2.019,0 3.659,0.82 3.659,1.83c0,0.036 -0.002,0.072 -0.007,0.108l0.007,0.001c0,0 0.158,5.111 0.912,8.123c0.702,2.811 3.736,3.887 3.736,10.128c0,0.127 -0.004,0.253 -0.012,0.376l0.012,0l0,19.095l-0.003,0c-0.116,2.242 -3.792,4.045 -8.304,4.045c-4.512,0 -8.188,-1.803 -8.304,-4.045l-0.003,0l0,-19.095l0.012,0c-0.008,-0.123 -0.012,-0.249 -0.012,-0.376c0,-6.241 3.034,-7.317 3.736,-10.128c0.754,-3.012 0.912,-8.123 0.912,-8.123l0.007,-0.001Z"/><path d="M25.344,24.032c-0.885,-0.172 -1.816,-0.172 -2.701,0l0.004,0.59c-0.237,0.054 -0.466,0.123 -0.687,0.206l-0.573,-0.419c-0.793,0.332 -1.452,0.809 -1.91,1.383l0.578,0.415c-0.114,0.16 -0.209,0.326 -0.284,0.498l-0.814,-0.003c-0.237,0.641 -0.237,1.315 0,1.956l0.814,-0.002c0.075,0.171 0.17,0.337 0.284,0.497l-0.578,0.415c0.458,0.574 1.117,1.051 1.91,1.383l0.573,-0.419c0.221,0.083 0.45,0.152 0.687,0.206l-0.004,0.59c0.885,0.172 1.816,0.172 2.701,0l-0.004,-0.59c0.237,-0.054 0.467,-0.123 0.687,-0.206l0.573,0.419c0.793,-0.332 1.452,-0.809 1.91,-1.383l-0.578,-0.415c0.114,-0.16 0.209,-0.326 0.284,-0.497l0.814,0.002c0.237,-0.641 0.237,-1.315 0,-1.956l-0.814,0.003c-0.075,-0.172 -0.17,-0.338 -0.284,-0.498l0.578,-0.415c-0.458,-0.574 -1.117,-1.051 -1.91,-1.383l-0.573,0.419c-0.22,-0.083 -0.45,-0.152 -0.687,-0.206l0.004,-0.59Zm-1.35,2.893c0.575,0 1.042,0.338 1.042,0.755c0,0.417 -0.467,0.755 -1.042,0.755c-0.576,0 -1.043,-0.338 -1.043,-0.755c0,-0.417 0.467,-0.755 1.043,-0.755Z" style="fill:#fff;"/><path d="M25.344,22.864c-0.885,-0.172 -1.816,-0.172 -2.701,0l0.004,0.589c-0.237,0.055 -0.466,0.124 -0.687,0.206l-0.573,-0.418c-0.793,0.331 -1.452,0.808 -1.91,1.383l0.578,0.415c-0.114,0.16 -0.209,0.326 -0.284,0.497l-0.814,-0.002c-0.237,0.64 -0.237,1.315 0,1.956l0.814,-0.003c0.075,0.171 0.17,0.338 0.284,0.497l-0.578,0.416c0.458,0.574 1.117,1.051 1.91,1.383l0.573,-0.419c0.221,0.082 0.45,0.151 0.687,0.206l-0.004,0.589c0.885,0.172 1.816,0.172 2.701,0l-0.004,-0.589c0.237,-0.055 0.467,-0.124 0.687,-0.206l0.573,0.419c0.793,-0.332 1.452,-0.809 1.91,-1.383l-0.578,-0.416c0.114,-0.159 0.209,-0.326 0.284,-0.497l0.814,0.003c0.237,-0.641 0.237,-1.316 0,-1.956l-0.814,0.002c-0.075,-0.171 -0.17,-0.337 -0.284,-0.497l0.578,-0.415c-0.458,-0.575 -1.117,-1.052 -1.91,-1.383l-0.573,0.418c-0.22,-0.082 -0.45,-0.151 -0.687,-0.206l0.004,-0.589Z"/></svg>