<?xml version="1.0" encoding="UTF-8" standalone="no"?><!DOCTYPE svg PUBLIC "-//W3C//DTD SVG 1.1//EN" "http://www.w3.org/Graphics/SVG/1.1/DTD/svg11.dtd"><svg width="100%" height="100%" viewBox="0 0 48 48" version="1.1" xmlns="http://www.w3.org/2000/svg" xmlns:xlink="http://www.w3.org/1999/xlink" xml:space="preserve" xmlns:serif="http://www.serif.com/" style="fill-rule:evenodd;clip-rule:evenodd;stroke-linejoin:round;stroke-miterlimit:1.41421;"><rect id="whisky" x="0" y="0" width="48" height="48" style="fill:none;"/><path d="M20.989,7.404c-0.004,-0.03 -0.006,-0.061 -0.006,-0.092c0,-0.858 1.393,-1.554 3.108,-1.554c1.716,0 3.108,0.696 3.108,1.554c0,0.031 -0.001,0.062 -0.005,0.092l0.005,0.001c0,0 0.135,4.342 0.775,6.901c0.597,2.388 8.933,2.194 8.933,7.496c0,0.108 -0.004,0.214 -0.01,0.319l0.01,0l0,19.103l-0.003,0c-0.098,1.905 -6.062,3.437 -12.813,3.437c-6.75,0 -12.897,-1.532 -12.995,-3.437l-0.003,0l0,-19.103l0.01,0c-0.006,-0.105 -0.01,-0.211 -0.01,-0.319c0,-5.302 8.61,-5.108 9.207,-7.496c0.64,-2.559 0.683,-6.901 0.683,-6.901l0.006,-0.001Z"/><ellipse cx="24" cy="9.041" rx="5.205" ry="3.293"/><ellipse cx="24" cy="5.628" rx="5.205" ry="3.293"/></svg>