<?xml version="1.0" encoding="UTF-8" standalone="no"?><!DOCTYPE svg PUBLIC "-//W3C//DTD SVG 1.1//EN" "http://www.w3.org/Graphics/SVG/1.1/DTD/svg11.dtd"><svg width="100%" height="100%" viewBox="0 0 512 512" version="1.1" xmlns="http://www.w3.org/2000/svg" xmlns:xlink="http://www.w3.org/1999/xlink" xml:space="preserve" xmlns:serif="http://www.serif.com/" style="fill-rule:evenodd;clip-rule:evenodd;stroke-linejoin:round;stroke-miterlimit:1.41421;"><rect id="_0.0.5" serif:id="0.0.5" x="0" y="0" width="512" height="512" style="fill:none;"/><path d="M512,128c0,-70.645 -57.355,-128 -128,-128l-256,0c-70.645,0 -128,57.355 -128,128l0,256c0,70.645 57.355,128 128,128l256,0c70.645,0 128,-57.355 128,-128l0,-256Z" style="fill:#f80;"/><path d="M374.049,97.54c-1.978,-8.574 -0.671,-16.424 4.388,-21.482c3.45,-3.45 8.198,-5.155 13.589,-5.263c0.109,-5.391 1.814,-10.14 5.264,-13.59c10.038,-10.038 31.072,-5.305 46.941,10.564c15.869,15.869 20.602,36.903 10.564,46.941c-3.45,3.45 -8.199,5.155 -13.59,5.264c-0.108,5.391 -1.813,10.139 -5.263,13.589c-5.058,5.059 -12.908,6.366 -21.482,4.388c-0.131,0.12 -0.265,0.234 -0.403,0.343l0.027,0.042c0,0 -27.356,29.107 -39.836,49.91c-11.644,19.409 -17.401,58.683 -51.873,93.154c-0.704,0.705 -1.419,1.376 -2.146,2.015l0.066,0.065l-171.161,171.162c0,0 -0.604,0.603 -0.604,0.603l-0.015,-0.015c-13.027,11.745 -43.293,1.393 -68.215,-23.53c-24.923,-24.922 -35.275,-55.188 -23.53,-68.215l-0.015,-0.015l171.765,-171.765l0.065,0.066c0.639,-0.727 1.31,-1.442 2.015,-2.146c34.471,-34.472 73.745,-40.229 93.154,-51.873c20.803,-12.48 49.91,-39.836 49.91,-39.836l0.042,0.027c0.109,-0.138 0.223,-0.272 0.343,-0.403Z"/><clipPath id="_clip1"><path d="M374.049,97.54c-1.978,-8.574 -0.671,-16.424 4.388,-21.482c3.45,-3.45 8.198,-5.155 13.589,-5.263c0.109,-5.391 1.814,-10.14 5.264,-13.59c10.038,-10.038 31.072,-5.305 46.941,10.564c15.869,15.869 20.602,36.903 10.564,46.941c-3.45,3.45 -8.199,5.155 -13.59,5.264c-0.108,5.391 -1.813,10.139 -5.263,13.589c-5.058,5.059 -12.908,6.366 -21.482,4.388c-0.131,0.12 -0.265,0.234 -0.403,0.343l0.027,0.042c0,0 -27.356,29.107 -39.836,49.91c-11.644,19.409 -17.401,58.683 -51.873,93.154c-0.704,0.705 -1.419,1.376 -2.146,2.015l0.066,0.065l-171.161,171.162c0,0 -0.604,0.603 -0.604,0.603l-0.015,-0.015c-13.027,11.745 -43.293,1.393 -68.215,-23.53c-24.923,-24.922 -35.275,-55.188 -23.53,-68.215l-0.015,-0.015l171.765,-171.765l0.065,0.066c0.639,-0.727 1.31,-1.442 2.015,-2.146c34.471,-34.472 73.745,-40.229 93.154,-51.873c20.803,-12.48 49.91,-39.836 49.91,-39.836l0.042,0.027c0.109,-0.138 0.223,-0.272 0.343,-0.403Z"/></clipPath><g clip-path="url(#_clip1)"><path d="M228.39,222.33c16.96,-6.601 36.97,-3.059 50.655,10.625c13.684,13.685 17.226,33.695 10.625,50.654c13.156,5.003 24.83,4.958 31.705,-1.239l0.015,0.015l-120.095,120.096l-0.016,-0.016c-13.029,11.745 -43.293,1.393 -68.215,-23.529c-24.922,-24.923 -35.274,-55.188 -23.529,-68.215l-0.016,-0.016l120.096,-120.095l0.015,0.015c-6.198,6.874 -6.242,18.549 -1.24,31.705Zm130.106,-160.602l0.016,0.016c-11.745,13.027 -1.394,43.292 23.529,68.215c24.922,24.922 55.187,35.274 68.215,23.529l0.016,0.016l-34.548,34.548l-0.016,-0.016c-13.028,11.745 -43.293,1.393 -68.215,-23.529c-24.923,-24.922 -35.274,-55.188 -23.529,-68.215l-0.016,-0.016l34.548,-34.548Z" style="fill:#778588;"/></g><path d="M411.692,41.937l0.251,0.003l0.252,0.004l0.253,0.006l0.252,0.007l0.252,0.009l0.252,0.011l0.252,0.013l0.253,0.014l0.252,0.015l0.252,0.017l0.253,0.019l0.252,0.02l0.252,0.022l0.253,0.024l0.252,0.025l0.252,0.026l0.253,0.028l0.252,0.03l0.252,0.031l0.253,0.033l0.252,0.034l0.252,0.035l0.253,0.037l0.252,0.039l0.252,0.04l0.252,0.042l0.252,0.043l0.253,0.044l0.251,0.046l0.252,0.047l0.253,0.049l0.251,0.05l0.252,0.052l0.252,0.053l0.252,0.055l0.252,0.056l0.251,0.057l0.251,0.059l0.252,0.06l0.252,0.061l0.251,0.063l0.251,0.064l0.251,0.066l0.252,0.067l0.251,0.069l0.25,0.07l0.25,0.071l0.251,0.072l0.252,0.074l0.25,0.075l0.25,0.077l0.25,0.078l0.251,0.079l0.25,0.081l0.25,0.081l0.25,0.084l0.249,0.084l0.25,0.086l0.25,0.087l0.248,0.089l0.25,0.089l0.25,0.092l0.248,0.092l0.249,0.094l0.248,0.095l0.249,0.096l0.248,0.098l0.249,0.099l0.248,0.1l0.247,0.101l0.248,0.103l0.248,0.104l0.247,0.105l0.248,0.107l0.247,0.107l0.247,0.109l0.246,0.11l0.247,0.112l0.246,0.113l0.246,0.114l0.246,0.115l0.247,0.118l0.245,0.117l0.244,0.119l0.245,0.12l0.246,0.122l0.245,0.123l0.244,0.124l0.243,0.125l0.245,0.127l0.244,0.128l0.243,0.129l0.243,0.13l0.243,0.131l0.243,0.133l0.242,0.134l0.243,0.135l0.242,0.136l0.241,0.137l0.242,0.139l0.241,0.141l0.241,0.141l0.241,0.142l0.24,0.144l0.24,0.145l0.24,0.146l0.239,0.147l0.24,0.148l0.239,0.151l0.238,0.15l0.237,0.151l0.238,0.154l0.238,0.154l0.237,0.156l0.238,0.158l0.237,0.157l0.234,0.159l0.237,0.161l0.236,0.162l0.235,0.162l0.234,0.163l0.235,0.166l0.234,0.166l0.234,0.168l0.233,0.168l0.233,0.17l0.233,0.172l0.232,0.172l0.231,0.173l0.231,0.174l0.232,0.176l0.231,0.177l0.229,0.178l0.23,0.179l0.23,0.181l0.229,0.182l0.227,0.181l0.228,0.184l0.228,0.186l0.228,0.187l0.226,0.186l0.226,0.189l0.226,0.19l0.224,0.19l0.225,0.193l0.225,0.193l0.223,0.194l0.223,0.195l0.223,0.197l0.223,0.198l0.222,0.199l0.22,0.2l0.222,0.201l0.22,0.203l0.219,0.203l0.219,0.204l0.218,0.206l0.218,0.207l0.219,0.209l0.216,0.209l0.216,0.21l0.216,0.212l0.216,0.213l0.214,0.212l0.214,0.216l0.213,0.215l0.211,0.215l0.21,0.217l0.21,0.217l0.208,0.218l0.206,0.217l0.206,0.218l0.206,0.221l0.203,0.22l0.202,0.219l0.201,0.22l0.2,0.222l0.199,0.221l0.198,0.223l0.196,0.222l0.196,0.223l0.194,0.224l0.194,0.226l0.192,0.224l0.189,0.224l0.191,0.226l0.188,0.226l0.188,0.227l0.187,0.228l0.183,0.226l0.185,0.229l0.184,0.229l0.18,0.227l0.18,0.229l0.18,0.23l0.179,0.231l0.176,0.23l0.175,0.231l0.175,0.232l0.174,0.232l0.172,0.232l0.17,0.232l0.171,0.233l0.168,0.233l0.168,0.234l0.167,0.235l0.164,0.233l0.163,0.234l0.164,0.236l0.161,0.236l0.161,0.236l0.16,0.237l0.157,0.235l0.157,0.237l0.156,0.238l0.153,0.236l0.154,0.238l0.153,0.241l0.15,0.237l0.15,0.239l0.148,0.239l0.146,0.238l0.148,0.242l0.144,0.24l0.143,0.238l0.144,0.242l0.141,0.241l0.14,0.241l0.138,0.242l0.138,0.241l0.136,0.242l0.135,0.242l0.135,0.244l0.131,0.241l0.131,0.242l0.131,0.245l0.13,0.245l0.128,0.243l0.125,0.241l0.126,0.246l0.125,0.246l0.122,0.244l0.121,0.244l0.121,0.246l0.119,0.245l0.117,0.244l0.117,0.247l0.115,0.245l0.115,0.247l0.113,0.247l0.111,0.246l0.11,0.245l0.11,0.248l0.108,0.248l0.106,0.246l0.105,0.248l0.105,0.248l0.103,0.249l0.1,0.246l0.1,0.246l0.1,0.251l0.098,0.249l0.095,0.247l0.095,0.249l0.094,0.249l0.093,0.249l0.091,0.25l0.089,0.247l0.088,0.249l0.088,0.252l0.085,0.248l0.085,0.249l0.084,0.253l0.081,0.247l0.081,0.25l0.08,0.252l0.077,0.251l0.077,0.25l0.075,0.25l0.074,0.25l0.072,0.25l0.071,0.25l0.07,0.253l0.069,0.251l0.067,0.25l0.066,0.253l0.064,0.251l0.062,0.25l0.062,0.253l0.06,0.251l0.059,0.25l0.057,0.253l0.056,0.251l0.054,0.25l0.054,0.253l0.052,0.254l0.05,0.25l0.049,0.253l0.047,0.254l0.045,0.247l0.045,0.253l0.043,0.253l0.042,0.254l0.04,0.253l0.038,0.25l0.038,0.253l0.035,0.25l0.034,0.253l0.033,0.256l0.031,0.25l0.029,0.25l0.029,0.256l0.026,0.253l0.025,0.249l0.024,0.253l0.022,0.252l0.02,0.253l0.019,0.252l0.017,0.253l0.015,0.252l0.015,0.255l0.012,0.252l0.01,0.249l0.01,0.252l0.007,0.252l0.006,0.255l0.004,0.251l0.003,0.251l0.001,0.255l-0.001,0.248l-0.002,0.251l-0.005,0.254l-0.005,0.254l-0.008,0.25l-0.009,0.251l-0.011,0.25l-0.013,0.25l-0.015,0.253l-0.016,0.253l-0.018,0.249l-0.02,0.25l-0.022,0.252l-0.023,0.252l-0.026,0.249l-0.027,0.248l-0.029,0.251l-0.031,0.252l-0.032,0.247l-0.035,0.251l-0.037,0.25l-0.038,0.247l-0.04,0.25l-0.042,0.246l-0.044,0.249l-0.047,0.252l-0.048,0.245l-0.049,0.245l-0.053,0.251l-0.055,0.247l-0.055,0.244l-0.058,0.247l-0.06,0.246l-0.063,0.245l-0.064,0.246l-0.066,0.244l-0.068,0.245l-0.071,0.244l-0.072,0.243l-0.075,0.243l-0.077,0.242l-0.078,0.241l-0.082,0.245l-0.083,0.24l-0.084,0.237l-0.089,0.242l-0.089,0.239l-0.092,0.238l-0.095,0.24l-0.096,0.237l-0.098,0.235l-0.1,0.236l-0.104,0.237l-0.105,0.233l-0.106,0.233l-0.111,0.235l-0.113,0.234l-0.113,0.23l-0.116,0.229l-0.119,0.231l-0.121,0.227l-0.123,0.23l-0.127,0.228l-0.126,0.224l-0.13,0.223l-0.132,0.225l-0.136,0.224l-0.135,0.22l-0.14,0.221l-0.142,0.221l-0.144,0.219l-0.145,0.215l-0.148,0.216l-0.151,0.216l-0.151,0.211l-0.155,0.212l-0.158,0.212l-0.161,0.212l-0.162,0.208l-0.161,0.202l-0.166,0.205l-0.17,0.206l-0.17,0.203l-0.173,0.2l-0.175,0.2l-0.177,0.197l-0.179,0.196l-0.181,0.194l-0.183,0.193l-0.185,0.191l-0.184,0.185l-0.135,0.135l-0.129,0.126l-0.132,0.128l-0.133,0.127l-0.132,0.123l-0.135,0.125l-0.136,0.124l-0.134,0.121l-0.137,0.122l-0.136,0.119l-0.136,0.118l-0.14,0.12l-0.14,0.118l-0.14,0.115l-0.139,0.114l-0.14,0.113l-0.144,0.115l-0.142,0.111l-0.142,0.11l-0.146,0.112l-0.142,0.106l-0.147,0.11l-0.146,0.106l-0.146,0.105l-0.147,0.105l-0.145,0.101l-0.15,0.104l-0.149,0.102l-0.15,0.1l-0.15,0.099l-0.151,0.098l-0.165,0.106l-0.287,0.181l-0.306,0.186l-0.309,0.183l-0.309,0.178l-0.31,0.172l-0.315,0.17l-0.315,0.165l-0.316,0.16l-0.318,0.157l-0.321,0.152l-0.321,0.148l-0.323,0.144l-0.324,0.139l-0.324,0.135l-0.327,0.131l-0.329,0.127l-0.329,0.123l-0.33,0.119l-0.331,0.114l-0.332,0.111l-0.333,0.106l-0.335,0.103l-0.334,0.098l-0.006,0.002l-0.001,0.004l-0.099,0.335l-0.102,0.335l-0.107,0.333l-0.11,0.333l-0.115,0.331l-0.119,0.33l-0.122,0.329l-0.127,0.327l-0.132,0.329l-0.135,0.325l-0.138,0.321l-0.144,0.324l-0.149,0.323l-0.151,0.319l-0.157,0.319l-0.16,0.315l-0.164,0.314l-0.171,0.316l-0.174,0.312l-0.177,0.308l-0.181,0.306l-0.186,0.306l-0.185,0.294l-0.105,0.163l-0.097,0.15l-0.099,0.148l-0.099,0.149l-0.103,0.151l-0.102,0.148l-0.102,0.146l-0.104,0.146l-0.107,0.149l-0.109,0.148l-0.104,0.14l-0.107,0.144l-0.115,0.149l-0.11,0.142l-0.108,0.138l-0.114,0.144l-0.116,0.143l-0.114,0.14l-0.115,0.139l-0.118,0.14l-0.118,0.138l-0.118,0.136l-0.121,0.139l-0.12,0.135l-0.124,0.137l-0.122,0.133l-0.123,0.133l-0.127,0.135l-0.127,0.134l-0.126,0.13l-0.127,0.13l-0.135,0.136l-0.186,0.183l-0.193,0.188l-0.193,0.184l-0.197,0.183l-0.197,0.18l-0.199,0.178l-0.201,0.176l-0.202,0.174l-0.206,0.173l-0.204,0.168l-0.205,0.166l-0.211,0.167l-0.209,0.162l-0.21,0.16l-0.214,0.159l-0.213,0.155l-0.215,0.154l-0.217,0.151l-0.218,0.149l-0.219,0.147l-0.22,0.144l-0.221,0.142l-0.223,0.14l-0.224,0.138l-0.225,0.135l-0.225,0.132l-0.227,0.131l-0.227,0.128l-0.23,0.127l-0.231,0.123l-0.229,0.121l-0.231,0.119l-0.233,0.117l-0.234,0.114l-0.234,0.112l-0.236,0.111l-0.235,0.107l-0.237,0.105l-0.237,0.103l-0.238,0.101l-0.239,0.099l-0.239,0.096l-0.24,0.094l-0.242,0.092l-0.24,0.09l-0.242,0.087l-0.242,0.085l-0.244,0.083l-0.244,0.081l-0.243,0.079l-0.245,0.076l-0.245,0.075l-0.246,0.072l-0.245,0.07l-0.247,0.068l-0.247,0.066l-0.246,0.063l-0.249,0.062l-0.248,0.06l-0.247,0.057l-0.249,0.056l-0.249,0.054l-0.249,0.051l-0.25,0.05l-0.25,0.047l-0.25,0.046l-0.25,0.043l-0.25,0.042l-0.251,0.039l-0.251,0.038l-0.252,0.036l-0.251,0.034l-0.252,0.031l-0.251,0.03l-0.253,0.029l-0.252,0.026l-0.252,0.024l-0.253,0.023l-0.252,0.021l-0.253,0.019l-0.254,0.017l-0.252,0.015l-0.253,0.014l-0.254,0.011l-0.253,0.01l-0.254,0.008l-0.253,0.007l-0.254,0.005l-0.253,0.003l-0.254,0.001l-0.254,0l-0.254,-0.003l-0.254,-0.003l-0.254,-0.006l-0.255,-0.007l-0.254,-0.009l-0.254,-0.01l-0.254,-0.012l-0.254,-0.014l-0.254,-0.015l-0.255,-0.017l-0.254,-0.019l-0.254,-0.02l-0.254,-0.022l-0.141,-0.013l-0.17,0.187l-0.47,0.518l-0.495,0.547l-0.519,0.575l-0.543,0.604l-0.565,0.63l-0.587,0.657l-0.607,0.682l-0.627,0.705l-0.645,0.73l-0.663,0.751l-0.679,0.774l-0.695,0.794l-0.709,0.814l-0.723,0.833l-0.735,0.851l-0.747,0.869l-0.758,0.885l-0.77,0.902l-0.385,0.453l-0.389,0.46l-0.391,0.463l-0.393,0.466l-0.394,0.469l-0.397,0.472l-0.396,0.475l-0.399,0.478l-0.4,0.481l-0.401,0.484l-0.402,0.486l-0.403,0.488l-0.403,0.49l-0.404,0.493l-0.404,0.495l-0.405,0.498l-0.405,0.498l-0.404,0.5l-0.405,0.503l-0.405,0.503l-0.404,0.505l-0.404,0.507l-0.403,0.507l-0.403,0.509l-0.401,0.508l-0.401,0.51l-0.4,0.512l-0.398,0.511l-0.397,0.511l-0.396,0.512l-0.394,0.513l-0.392,0.512l-0.391,0.513l-0.388,0.512l-0.387,0.511l-0.384,0.512l-0.381,0.511l-0.38,0.51l-0.377,0.509l-0.373,0.509l-0.372,0.508l-0.367,0.505l-0.365,0.505l-0.362,0.504l-0.358,0.501l-0.354,0.501l-0.352,0.498l-0.347,0.496l-0.342,0.494l-0.339,0.491l-0.335,0.49l-0.331,0.487l-0.326,0.484l-0.321,0.481l-0.317,0.478l-0.312,0.475l-0.306,0.472l-0.302,0.468l-0.295,0.464l-0.291,0.46l-0.286,0.457l-0.282,0.457l-0.134,0.219l-0.137,0.225l-0.134,0.22l-0.129,0.216l-0.114,0.19l-0.109,0.185l-0.11,0.189l-0.11,0.192l-0.111,0.194l-0.11,0.196l-0.111,0.199l-0.112,0.202l-0.11,0.203l-0.112,0.206l-0.112,0.21l-0.111,0.211l-0.112,0.214l-0.113,0.217l-0.112,0.218l-0.113,0.222l-0.113,0.223l-0.112,0.225l-0.113,0.228l-0.114,0.232l-0.113,0.232l-0.113,0.235l-0.114,0.238l-0.114,0.24l-0.114,0.242l-0.115,0.245l-0.114,0.246l-0.114,0.248l-0.116,0.252l-0.115,0.253l-0.115,0.255l-0.113,0.253l-0.234,0.528l-0.232,0.529l-0.233,0.539l-0.234,0.547l-0.235,0.554l-0.236,0.563l-0.237,0.571l-0.238,0.578l-0.24,0.587l-0.24,0.593l-0.242,0.601l-0.243,0.608l-0.244,0.615l-0.246,0.623l-0.248,0.63l-0.249,0.636l-0.251,0.643l-0.252,0.648l-0.511,1.322l-0.52,1.345l-0.528,1.368l-0.537,1.393l-0.548,1.415l-0.557,1.435l-0.284,0.729l-0.287,0.733l-0.29,0.737l-0.293,0.742l-0.296,0.747l-0.299,0.752l-0.304,0.758l-0.307,0.762l-0.31,0.765l-0.314,0.771l-0.318,0.775l-0.322,0.78l-0.327,0.784l-0.33,0.788l-0.335,0.791l-0.339,0.797l-0.344,0.8l-0.348,0.804l-0.353,0.807l-0.355,0.806l-0.183,0.411l-0.182,0.409l-0.183,0.408l-0.185,0.41l-0.186,0.41l-0.186,0.41l-0.189,0.413l-0.19,0.413l-0.191,0.413l-0.191,0.413l-0.194,0.415l-0.196,0.418l-0.196,0.416l-0.198,0.416l-0.199,0.419l-0.201,0.418l-0.202,0.421l-0.204,0.419l-0.204,0.421l-0.207,0.422l-0.208,0.422l-0.21,0.423l-0.211,0.424l-0.212,0.424l-0.214,0.424l-0.216,0.426l-0.217,0.425l-0.219,0.427l-0.221,0.428l-0.221,0.427l-0.224,0.428l-0.225,0.429l-0.227,0.43l-0.229,0.43l-0.23,0.43l-0.232,0.431l-0.234,0.432l-0.235,0.431l-0.237,0.433l-0.239,0.432l-0.24,0.434l-0.243,0.433l-0.243,0.433l-0.247,0.436l-0.248,0.435l-0.249,0.435l-0.251,0.436l-0.253,0.435l-0.256,0.438l-0.257,0.437l-0.258,0.436l-0.261,0.438l-0.262,0.438l-0.264,0.437l-0.267,0.438l-0.268,0.439l-0.271,0.439l-0.272,0.44l-0.274,0.439l-0.276,0.439l-0.278,0.44l-0.281,0.44l-0.283,0.441l-0.284,0.44l-0.286,0.44l-0.289,0.442l-0.29,0.44l-0.293,0.441l-0.295,0.441l-0.296,0.442l-0.3,0.442l-0.301,0.441l-0.303,0.441l-0.306,0.443l-0.308,0.442l-0.309,0.441l-0.312,0.442l-0.315,0.442l-0.316,0.441l-0.319,0.443l-0.321,0.442l-0.323,0.441l-0.326,0.443l-0.328,0.442l-0.331,0.441l-0.332,0.442l-0.335,0.442l-0.338,0.442l-0.339,0.441l-0.342,0.441l-0.344,0.442l-0.347,0.441l-0.348,0.44l-0.352,0.441l-0.355,0.442l-0.356,0.44l-0.359,0.441l-0.362,0.44l-0.363,0.439l-0.366,0.44l-0.369,0.439l-0.371,0.44l-0.374,0.439l-0.377,0.439l-0.379,0.438l-0.381,0.438l-0.384,0.438l-0.386,0.438l-0.39,0.437l-0.391,0.437l-0.395,0.436l-0.397,0.437l-0.4,0.435l-0.402,0.436l-0.405,0.435l-0.407,0.434l-0.411,0.435l-0.413,0.434l-0.416,0.433l-0.418,0.433l-0.422,0.433l-0.423,0.431l-0.427,0.432l-0.437,0.439l-0.313,0.311l-0.323,0.314l-0.323,0.311l-0.326,0.308l-0.327,0.305l-0.241,0.221l-0.22,0.303l-171.161,171.161l-0.604,0.604l-0.523,0.38l0.085,0.003l-0.198,0.176l-0.249,0.216l-0.252,0.214l-0.253,0.209l-0.255,0.205l-0.259,0.203l-0.261,0.2l-0.262,0.195l-0.265,0.193l-0.267,0.189l-0.268,0.185l-0.271,0.182l-0.272,0.179l-0.275,0.175l-0.277,0.172l-0.276,0.168l-0.28,0.164l-0.281,0.162l-0.283,0.157l-0.284,0.154l-0.286,0.151l-0.287,0.148l-0.289,0.144l-0.29,0.14l-0.29,0.137l-0.292,0.133l-0.294,0.131l-0.295,0.127l-0.296,0.123l-0.297,0.12l-0.298,0.117l-0.299,0.113l-0.3,0.11l-0.301,0.107l-0.301,0.104l-0.302,0.1l-0.304,0.097l-0.304,0.094l-0.305,0.091l-0.306,0.087l-0.306,0.085l-0.307,0.081l-0.308,0.079l-0.308,0.075l-0.309,0.072l-0.31,0.069l-0.31,0.067l-0.311,0.063l-0.311,0.061l-0.311,0.057l-0.312,0.055l-0.312,0.051l-0.314,0.05l-0.313,0.046l-0.314,0.043l-0.314,0.041l-0.315,0.038l-0.315,0.035l-0.315,0.033l-0.316,0.03l-0.316,0.027l-0.317,0.025l-0.317,0.022l-0.317,0.019l-0.318,0.018l-0.317,0.014l-0.319,0.012l-0.318,0.01l-0.319,0.007l-0.319,0.004l-0.319,0.003l-0.319,-0.001l-0.321,-0.002l-0.32,-0.005l-0.321,-0.007l-0.32,-0.01l-0.32,-0.012l-0.322,-0.014l-0.321,-0.016l-0.322,-0.019l-0.323,-0.021l-0.321,-0.023l-0.323,-0.026l-0.323,-0.027l-0.323,-0.03l-0.323,-0.032l-0.323,-0.034l-0.324,-0.036l-0.324,-0.038l-0.324,-0.041l-0.324,-0.042l-0.325,-0.045l-0.325,-0.047l-0.325,-0.049l-0.325,-0.05l-0.326,-0.053l-0.325,-0.055l-0.327,-0.057l-0.326,-0.059l-0.326,-0.061l-0.327,-0.063l-0.327,-0.065l-0.327,-0.067l-0.327,-0.068l-0.327,-0.071l-0.329,-0.073l-0.327,-0.074l-0.329,-0.077l-0.328,-0.078l-0.328,-0.081l-0.33,-0.082l-0.329,-0.084l-0.329,-0.086l-0.329,-0.088l-0.33,-0.09l-0.33,-0.092l-0.33,-0.093l-0.33,-0.095l-0.331,-0.097l-0.33,-0.099l-0.331,-0.101l-0.331,-0.103l-0.331,-0.104l-0.332,-0.107l-0.331,-0.108l-0.332,-0.109l-0.332,-0.112l-0.332,-0.113l-0.333,-0.116l-0.332,-0.117l-0.332,-0.118l-0.333,-0.121l-0.334,-0.122l-0.333,-0.124l-0.333,-0.126l-0.333,-0.127l-0.334,-0.129l-0.333,-0.131l-0.335,-0.133l-0.334,-0.135l-0.334,-0.136l-0.334,-0.137l-0.334,-0.14l-0.335,-0.141l-0.335,-0.143l-0.335,-0.145l-0.334,-0.146l-0.335,-0.148l-0.336,-0.15l-0.334,-0.151l-0.336,-0.153l-0.336,-0.155l-0.335,-0.156l-0.336,-0.158l-0.335,-0.16l-0.336,-0.161l-0.336,-0.163l-0.336,-0.165l-0.336,-0.167l-0.336,-0.168l-0.336,-0.169l-0.336,-0.171l-0.336,-0.173l-0.336,-0.175l-0.337,-0.176l-0.336,-0.178l-0.336,-0.179l-0.337,-0.181l-0.336,-0.183l-0.336,-0.184l-0.337,-0.186l-0.336,-0.187l-0.337,-0.189l-0.336,-0.191l-0.336,-0.192l-0.337,-0.194l-0.336,-0.196l-0.336,-0.197l-0.336,-0.198l-0.337,-0.2l-0.336,-0.202l-0.336,-0.203l-0.336,-0.206l-0.336,-0.206l-0.335,-0.208l-0.337,-0.21l-0.336,-0.211l-0.335,-0.212l-0.336,-0.215l-0.336,-0.216l-0.334,-0.217l-0.336,-0.219l-0.335,-0.221l-0.335,-0.222l-0.334,-0.224l-0.335,-0.225l-0.335,-0.227l-0.335,-0.228l-0.334,-0.229l-0.334,-0.232l-0.334,-0.233l-0.334,-0.234l-0.333,-0.236l-0.334,-0.237l-0.333,-0.239l-0.333,-0.241l-0.333,-0.242l-0.332,-0.243l-0.333,-0.245l-0.332,-0.247l-0.332,-0.248l-0.332,-0.249l-0.331,-0.251l-0.332,-0.253l-0.331,-0.254l-0.33,-0.255l-0.331,-0.257l-0.33,-0.259l-0.33,-0.26l-0.329,-0.261l-0.329,-0.263l-0.33,-0.265l-0.328,-0.266l-0.328,-0.267l-0.329,-0.269l-0.328,-0.27l-0.327,-0.272l-0.327,-0.273l-0.326,-0.275l-0.327,-0.276l-0.326,-0.278l-0.325,-0.279l-0.325,-0.28l-0.325,-0.282l-0.324,-0.283l-0.325,-0.285l-0.323,-0.287l-0.323,-0.287l-0.323,-0.29l-0.322,-0.29l-0.322,-0.293l-0.322,-0.294l-0.321,-0.294l-0.32,-0.296l-0.32,-0.298l-0.32,-0.3l-0.319,-0.3l-0.318,-0.302l-0.319,-0.304l-0.317,-0.305l-0.317,-0.306l-0.317,-0.308l-0.316,-0.309l-0.315,-0.311l-0.315,-0.312l-0.315,-0.314l-0.313,-0.314l-0.312,-0.315l-0.311,-0.315l-0.309,-0.317l-0.307,-0.316l-0.307,-0.317l-0.305,-0.318l-0.303,-0.318l-0.303,-0.318l-0.3,-0.32l-0.3,-0.319l-0.297,-0.32l-0.297,-0.32l-0.295,-0.322l-0.294,-0.321l-0.291,-0.321l-0.291,-0.323l-0.29,-0.323l-0.287,-0.323l-0.287,-0.324l-0.285,-0.324l-0.283,-0.324l-0.282,-0.325l-0.281,-0.325l-0.278,-0.325l-0.278,-0.326l-0.276,-0.327l-0.275,-0.326l-0.274,-0.328l-0.271,-0.327l-0.27,-0.327l-0.269,-0.328l-0.267,-0.329l-0.267,-0.329l-0.264,-0.328l-0.263,-0.33l-0.261,-0.329l-0.26,-0.33l-0.259,-0.33l-0.257,-0.331l-0.255,-0.33l-0.254,-0.332l-0.253,-0.331l-0.251,-0.331l-0.249,-0.332l-0.248,-0.332l-0.247,-0.332l-0.245,-0.332l-0.243,-0.333l-0.242,-0.333l-0.241,-0.333l-0.239,-0.333l-0.237,-0.334l-0.236,-0.333l-0.234,-0.334l-0.233,-0.334l-0.231,-0.334l-0.23,-0.334l-0.229,-0.335l-0.226,-0.334l-0.225,-0.335l-0.224,-0.336l-0.222,-0.334l-0.221,-0.335l-0.218,-0.335l-0.218,-0.336l-0.216,-0.335l-0.214,-0.336l-0.213,-0.336l-0.211,-0.335l-0.21,-0.336l-0.208,-0.336l-0.207,-0.336l-0.204,-0.336l-0.204,-0.336l-0.202,-0.337l-0.2,-0.336l-0.198,-0.335l-0.197,-0.337l-0.196,-0.337l-0.194,-0.336l-0.192,-0.336l-0.19,-0.336l-0.19,-0.337l-0.187,-0.336l-0.186,-0.336l-0.185,-0.337l-0.182,-0.336l-0.181,-0.336l-0.179,-0.337l-0.178,-0.337l-0.176,-0.335l-0.175,-0.336l-0.173,-0.337l-0.171,-0.336l-0.169,-0.336l-0.169,-0.337l-0.166,-0.335l-0.164,-0.336l-0.164,-0.336l-0.161,-0.336l-0.16,-0.335l-0.158,-0.336l-0.156,-0.336l-0.155,-0.334l-0.153,-0.337l-0.151,-0.335l-0.15,-0.335l-0.148,-0.334l-0.146,-0.336l-0.145,-0.335l-0.143,-0.333l-0.141,-0.335l-0.14,-0.335l-0.138,-0.334l-0.136,-0.335l-0.134,-0.334l-0.133,-0.334l-0.131,-0.333l-0.129,-0.333l-0.127,-0.334l-0.126,-0.333l-0.124,-0.334l-0.122,-0.332l-0.121,-0.333l-0.119,-0.333l-0.116,-0.332l-0.115,-0.332l-0.114,-0.332l-0.112,-0.333l-0.11,-0.332l-0.107,-0.331l-0.107,-0.332l-0.104,-0.331l-0.103,-0.33l-0.101,-0.332l-0.099,-0.33l-0.097,-0.33l-0.095,-0.331l-0.094,-0.33l-0.091,-0.33l-0.09,-0.33l-0.088,-0.33l-0.086,-0.329l-0.084,-0.328l-0.082,-0.33l-0.08,-0.327l-0.079,-0.329l-0.077,-0.329l-0.074,-0.328l-0.073,-0.328l-0.071,-0.327l-0.068,-0.327l-0.067,-0.327l-0.065,-0.327l-0.063,-0.327l-0.061,-0.327l-0.059,-0.325l-0.057,-0.327l-0.055,-0.326l-0.052,-0.324l-0.051,-0.326l-0.049,-0.326l-0.047,-0.324l-0.045,-0.325l-0.042,-0.324l-0.04,-0.324l-0.039,-0.324l-0.036,-0.324l-0.034,-0.323l-0.032,-0.323l-0.03,-0.324l-0.027,-0.322l-0.026,-0.323l-0.023,-0.322l-0.021,-0.322l-0.019,-0.321l-0.016,-0.322l-0.014,-0.321l-0.012,-0.321l-0.01,-0.322l-0.007,-0.319l-0.005,-0.321l-0.002,-0.32l-0.001,-0.318l0.003,-0.319l0.004,-0.32l0.007,-0.32l0.01,-0.318l0.012,-0.317l0.015,-0.319l0.017,-0.317l0.019,-0.316l0.022,-0.317l0.025,-0.318l0.027,-0.316l0.03,-0.315l0.033,-0.317l0.035,-0.314l0.038,-0.315l0.041,-0.315l0.043,-0.313l0.046,-0.313l0.049,-0.313l0.052,-0.313l0.055,-0.312l0.058,-0.312l0.06,-0.311l0.063,-0.311l0.067,-0.309l0.069,-0.31l0.072,-0.308l0.076,-0.31l0.078,-0.307l0.081,-0.306l0.085,-0.307l0.087,-0.306l0.091,-0.305l0.094,-0.304l0.097,-0.304l0.101,-0.302l0.103,-0.301l0.107,-0.301l0.11,-0.3l0.114,-0.3l0.116,-0.297l0.12,-0.296l0.124,-0.297l0.127,-0.295l0.129,-0.293l0.134,-0.292l0.137,-0.292l0.141,-0.29l0.143,-0.288l0.148,-0.288l0.15,-0.285l0.154,-0.284l0.158,-0.283l0.161,-0.281l0.165,-0.28l0.169,-0.278l0.17,-0.275l0.176,-0.275l0.179,-0.272l0.182,-0.271l0.185,-0.269l0.189,-0.266l0.193,-0.265l0.195,-0.262l0.2,-0.261l0.203,-0.258l0.205,-0.255l0.21,-0.255l0.213,-0.251l0.215,-0.248l0.178,-0.2l0.003,0.086l0.38,-0.523l171.764,-171.765l0.303,-0.22l0.221,-0.241l0.304,-0.327l0.308,-0.326l0.312,-0.324l0.315,-0.322l0.31,-0.313l0.439,-0.437l0.431,-0.427l0.432,-0.424l0.433,-0.421l0.433,-0.418l0.433,-0.416l0.434,-0.413l0.434,-0.41l0.435,-0.408l0.435,-0.405l0.436,-0.402l0.435,-0.4l0.437,-0.397l0.436,-0.394l0.437,-0.392l0.437,-0.39l0.438,-0.386l0.438,-0.384l0.438,-0.382l0.438,-0.378l0.439,-0.377l0.439,-0.374l0.439,-0.371l0.44,-0.369l0.44,-0.366l0.44,-0.364l0.44,-0.361l0.44,-0.359l0.441,-0.357l0.44,-0.353l0.441,-0.352l0.441,-0.349l0.441,-0.347l0.442,-0.344l0.441,-0.342l0.442,-0.34l0.441,-0.337l0.442,-0.335l0.442,-0.332l0.442,-0.331l0.442,-0.328l0.441,-0.325l0.442,-0.324l0.442,-0.321l0.442,-0.318l0.442,-0.317l0.442,-0.315l0.442,-0.312l0.442,-0.31l0.442,-0.307l0.441,-0.306l0.442,-0.303l0.441,-0.301l0.442,-0.299l0.441,-0.297l0.441,-0.295l0.442,-0.293l0.441,-0.291l0.44,-0.288l0.441,-0.286l0.44,-0.285l0.441,-0.282l0.44,-0.28l0.44,-0.279l0.439,-0.276l0.44,-0.274l0.439,-0.272l0.439,-0.271l0.438,-0.268l0.439,-0.267l0.438,-0.264l0.437,-0.262l0.438,-0.261l0.437,-0.259l0.436,-0.257l0.437,-0.255l0.436,-0.253l0.435,-0.251l0.436,-0.25l0.436,-0.248l0.433,-0.245l0.434,-0.244l0.435,-0.243l0.433,-0.24l0.433,-0.239l0.431,-0.237l0.433,-0.235l0.431,-0.234l0.431,-0.232l0.43,-0.23l0.43,-0.229l0.43,-0.227l0.428,-0.225l0.429,-0.223l0.428,-0.223l0.427,-0.22l0.426,-0.219l0.426,-0.217l0.425,-0.216l0.426,-0.214l0.424,-0.212l0.423,-0.211l0.423,-0.21l0.422,-0.208l0.422,-0.206l0.421,-0.205l0.42,-0.204l0.42,-0.202l0.418,-0.201l0.418,-0.199l0.418,-0.198l0.416,-0.196l0.415,-0.195l0.416,-0.194l0.414,-0.192l0.414,-0.192l0.413,-0.189l0.411,-0.188l0.411,-0.188l0.411,-0.185l0.409,-0.185l0.409,-0.183l0.407,-0.182l0.411,-0.182l0.807,-0.356l0.808,-0.353l0.803,-0.349l0.8,-0.343l0.796,-0.339l0.792,-0.335l0.788,-0.33l0.784,-0.327l0.78,-0.322l0.775,-0.318l0.77,-0.314l0.767,-0.31l0.761,-0.307l0.758,-0.303l0.752,-0.3l0.747,-0.296l0.742,-0.293l0.738,-0.29l0.732,-0.286l0.729,-0.285l1.435,-0.557l1.415,-0.548l1.393,-0.537l1.369,-0.528l1.344,-0.519l1.322,-0.512l0.648,-0.252l0.643,-0.251l0.636,-0.249l0.63,-0.248l0.622,-0.246l0.616,-0.244l0.608,-0.244l0.601,-0.241l0.594,-0.241l0.586,-0.239l0.578,-0.238l0.571,-0.237l0.563,-0.236l0.555,-0.235l0.546,-0.234l0.539,-0.233l0.53,-0.232l0.527,-0.234l0.253,-0.113l0.255,-0.115l0.253,-0.115l0.251,-0.115l0.249,-0.115l0.247,-0.115l0.244,-0.114l0.242,-0.114l0.24,-0.114l0.238,-0.114l0.235,-0.113l0.232,-0.113l0.232,-0.114l0.227,-0.113l0.226,-0.113l0.224,-0.113l0.221,-0.112l0.219,-0.113l0.215,-0.111l0.214,-0.112l0.213,-0.113l0.208,-0.111l0.207,-0.112l0.203,-0.111l0.202,-0.111l0.199,-0.111l0.197,-0.11l0.193,-0.111l0.191,-0.11l0.189,-0.11l0.186,-0.11l0.19,-0.112l0.215,-0.13l0.223,-0.135l0.223,-0.136l0.219,-0.134l0.457,-0.282l0.456,-0.285l0.461,-0.291l0.464,-0.296l0.468,-0.302l0.472,-0.306l0.475,-0.312l0.478,-0.317l0.481,-0.321l0.484,-0.326l0.487,-0.331l0.489,-0.334l0.492,-0.339l0.494,-0.344l0.496,-0.347l0.499,-0.351l0.499,-0.354l0.502,-0.358l0.504,-0.362l0.505,-0.365l0.506,-0.368l0.507,-0.37l0.509,-0.375l0.509,-0.376l0.51,-0.379l0.511,-0.382l0.512,-0.385l0.511,-0.386l0.512,-0.388l0.512,-0.391l0.513,-0.392l0.512,-0.394l0.512,-0.396l0.512,-0.397l0.511,-0.398l0.512,-0.4l0.51,-0.401l0.509,-0.401l0.508,-0.403l0.507,-0.403l0.507,-0.404l0.505,-0.404l0.503,-0.405l0.502,-0.404l0.501,-0.405l0.499,-0.405l0.496,-0.405l0.495,-0.404l0.493,-0.404l0.491,-0.403l0.489,-0.403l0.485,-0.402l0.484,-0.401l0.48,-0.4l0.479,-0.399l0.475,-0.397l0.472,-0.396l0.469,-0.394l0.467,-0.393l0.462,-0.391l0.459,-0.389l0.454,-0.386l0.902,-0.769l0.885,-0.757l0.869,-0.748l0.851,-0.735l0.833,-0.723l0.814,-0.709l0.794,-0.695l0.774,-0.679l0.751,-0.663l0.73,-0.645l0.705,-0.627l0.682,-0.607l0.656,-0.587l0.631,-0.565l0.604,-0.543l0.575,-0.519l0.547,-0.495l0.518,-0.47l0.187,-0.17l-0.013,-0.141l-0.022,-0.254l-0.02,-0.253l-0.018,-0.253l-0.018,-0.257l-0.015,-0.256l-0.014,-0.25l-0.012,-0.256l-0.01,-0.256l-0.009,-0.25l-0.007,-0.256l-0.006,-0.256l-0.003,-0.252l-0.003,-0.256l0,-0.255l0.001,-0.252l0.003,-0.252l0.005,-0.255l0.007,-0.255l0.008,-0.251l0.01,-0.255l0.012,-0.254l0.013,-0.251l0.015,-0.254l0.018,-0.253l0.018,-0.251l0.021,-0.253l0.023,-0.253l0.024,-0.253l0.026,-0.253l0.029,-0.252l0.03,-0.252l0.031,-0.249l0.034,-0.252l0.036,-0.254l0.038,-0.251l0.039,-0.248l0.042,-0.25l0.044,-0.254l0.045,-0.25l0.048,-0.249l0.049,-0.249l0.051,-0.249l0.054,-0.248l0.055,-0.248l0.058,-0.251l0.06,-0.247l0.061,-0.247l0.064,-0.246l0.065,-0.246l0.069,-0.249l0.071,-0.248l0.072,-0.244l0.074,-0.244l0.076,-0.243l0.079,-0.246l0.082,-0.245l0.081,-0.239l0.086,-0.244l0.088,-0.243l0.089,-0.24l0.092,-0.242l0.095,-0.242l0.095,-0.237l0.098,-0.237l0.101,-0.239l0.104,-0.238l0.105,-0.238l0.108,-0.237l0.109,-0.233l0.113,-0.235l0.115,-0.234l0.115,-0.23l0.119,-0.232l0.122,-0.231l0.124,-0.23l0.126,-0.23l0.128,-0.228l0.131,-0.227l0.131,-0.223l0.136,-0.225l0.139,-0.226l0.139,-0.223l0.143,-0.221l0.142,-0.217l0.147,-0.219l0.15,-0.22l0.151,-0.216l0.154,-0.215l0.157,-0.216l0.158,-0.212l0.158,-0.208l0.164,-0.212l0.166,-0.21l0.165,-0.204l0.169,-0.205l0.173,-0.205l0.175,-0.204l0.175,-0.2l0.178,-0.198l0.181,-0.199l0.182,-0.195l0.184,-0.194l0.188,-0.193l0.183,-0.185l0.134,-0.134l0.132,-0.128l0.132,-0.128l0.133,-0.127l0.134,-0.126l0.132,-0.123l0.134,-0.122l0.136,-0.123l0.138,-0.122l0.135,-0.119l0.137,-0.118l0.14,-0.119l0.14,-0.119l0.139,-0.115l0.139,-0.114l0.143,-0.115l0.142,-0.113l0.142,-0.111l0.142,-0.11l0.143,-0.109l0.147,-0.111l0.145,-0.107l0.145,-0.106l0.146,-0.106l0.147,-0.104l0.148,-0.104l0.148,-0.102l0.149,-0.101l0.147,-0.099l0.15,-0.099l0.153,-0.1l0.165,-0.106l0.289,-0.181l0.306,-0.187l0.307,-0.181l0.309,-0.178l0.312,-0.174l0.314,-0.169l0.314,-0.164l0.317,-0.161l0.318,-0.157l0.319,-0.151l0.322,-0.148l0.323,-0.144l0.324,-0.14l0.326,-0.135l0.326,-0.131l0.328,-0.127l0.33,-0.123l0.329,-0.118l0.331,-0.114l0.333,-0.111l0.333,-0.107l0.334,-0.102l0.335,-0.099l0.005,-0.001l0.002,-0.007l0.099,-0.335l0.102,-0.332l0.106,-0.334l0.111,-0.332l0.115,-0.331l0.118,-0.331l0.123,-0.328l0.127,-0.328l0.131,-0.326l0.135,-0.325l0.14,-0.326l0.143,-0.322l0.147,-0.32l0.154,-0.324l0.156,-0.317l0.16,-0.315l0.165,-0.316l0.169,-0.312l0.173,-0.312l0.178,-0.31l0.183,-0.308l0.186,-0.305l0.181,-0.288l0.105,-0.164l0.1,-0.153l0.101,-0.153l0.097,-0.145l0.1,-0.147l0.104,-0.151l0.103,-0.146l0.106,-0.15l0.105,-0.145l0.106,-0.145l0.109,-0.147l0.108,-0.144l0.109,-0.142l0.109,-0.142l0.114,-0.145l0.112,-0.141l0.113,-0.14l0.116,-0.142l0.115,-0.139l0.119,-0.141l0.12,-0.14l0.115,-0.134l0.119,-0.135l0.125,-0.141l0.122,-0.134l0.122,-0.134l0.125,-0.135l0.124,-0.132l0.125,-0.131l0.129,-0.134l0.127,-0.129l0.133,-0.135l0.186,-0.184l0.191,-0.185l0.194,-0.184l0.194,-0.181l0.194,-0.177l0.199,-0.179l0.2,-0.175l0.199,-0.171l0.203,-0.171l0.202,-0.168l0.206,-0.167l0.208,-0.164l0.208,-0.161l0.209,-0.16l0.21,-0.157l0.212,-0.154l0.214,-0.153l0.215,-0.151l0.216,-0.148l0.216,-0.146l0.217,-0.143l0.222,-0.143l0.221,-0.138l0.221,-0.137l0.222,-0.134l0.224,-0.132l0.225,-0.13l0.226,-0.128l0.227,-0.126l0.228,-0.123l0.228,-0.121l0.229,-0.118l0.233,-0.118l0.231,-0.114l0.231,-0.111l0.232,-0.109l0.235,-0.108l0.235,-0.105l0.236,-0.103l0.236,-0.101l0.236,-0.098l0.236,-0.096l0.239,-0.095l0.238,-0.091l0.239,-0.09l0.241,-0.088l0.24,-0.085l0.241,-0.083l0.242,-0.081l0.242,-0.079l0.243,-0.077l0.242,-0.075l0.243,-0.072l0.245,-0.071l0.243,-0.068l0.245,-0.066l0.246,-0.065l0.245,-0.062l0.246,-0.06l0.246,-0.058l0.246,-0.056l0.247,-0.054l0.248,-0.052l0.247,-0.05l0.248,-0.048l0.247,-0.046l0.249,-0.045l0.249,-0.042l0.248,-0.04l0.249,-0.038l0.25,-0.037l0.249,-0.035l0.25,-0.032l0.249,-0.031l0.25,-0.029l0.251,-0.027l0.25,-0.026l0.25,-0.023l0.251,-0.022l0.251,-0.02l0.251,-0.018l0.251,-0.016l0.251,-0.015l0.251,-0.013l0.251,-0.011l0.252,-0.009l0.251,-0.008l0.252,-0.005l0.252,-0.005l0.252,-0.002l0.251,-0.001l0.253,0.001Zm-0.44,10l-0.185,0.002l-0.184,0.003l-0.183,0.004l-0.183,0.005l-0.183,0.007l-0.182,0.008l-0.182,0.009l-0.181,0.011l-0.18,0.012l-0.18,0.013l-0.179,0.014l-0.179,0.015l-0.179,0.017l-0.177,0.018l-0.177,0.019l-0.177,0.021l-0.176,0.022l-0.176,0.023l-0.174,0.024l-0.175,0.025l-0.173,0.027l-0.173,0.028l-0.173,0.03l-0.172,0.03l-0.171,0.032l-0.17,0.033l-0.17,0.034l-0.169,0.036l-0.169,0.037l-0.168,0.038l-0.167,0.04l-0.167,0.04l-0.166,0.043l-0.165,0.043l-0.165,0.044l-0.164,0.046l-0.163,0.047l-0.162,0.049l-0.162,0.05l-0.161,0.051l-0.161,0.052l-0.159,0.053l-0.159,0.055l-0.159,0.056l-0.157,0.058l-0.157,0.059l-0.156,0.06l-0.155,0.061l-0.154,0.063l-0.154,0.064l-0.153,0.065l-0.152,0.066l-0.151,0.068l-0.151,0.069l-0.15,0.071l-0.149,0.072l-0.148,0.073l-0.147,0.074l-0.146,0.076l-0.146,0.077l-0.145,0.078l-0.144,0.08l-0.143,0.081l-0.142,0.082l-0.142,0.083l-0.14,0.085l-0.14,0.086l-0.139,0.088l-0.138,0.089l-0.137,0.09l-0.136,0.092l-0.135,0.092l-0.135,0.095l-0.133,0.095l-0.133,0.097l-0.131,0.098l-0.131,0.1l-0.13,0.1l-0.129,0.103l-0.128,0.103l-0.126,0.105l-0.126,0.106l-0.125,0.108l-0.125,0.109l-0.123,0.11l-0.122,0.111l-0.121,0.113l-0.12,0.115l-0.119,0.115l-0.118,0.117l-0.081,0.081l-0.08,0.082l-0.079,0.082l-0.079,0.082l-0.078,0.083l-0.077,0.084l-0.077,0.084l-0.076,0.084l-0.075,0.085l-0.075,0.085l-0.074,0.086l-0.074,0.086l-0.073,0.087l-0.072,0.087l-0.072,0.087l-0.071,0.088l-0.07,0.089l-0.07,0.089l-0.069,0.089l-0.068,0.09l-0.068,0.09l-0.067,0.091l-0.067,0.091l-0.066,0.091l-0.065,0.092l-0.065,0.093l-0.064,0.092l-0.063,0.094l-0.063,0.093l-0.062,0.094l-0.062,0.095l-0.061,0.095l-0.12,0.191l-0.117,0.193l-0.115,0.194l-0.113,0.196l-0.11,0.197l-0.108,0.2l-0.105,0.2l-0.102,0.203l-0.1,0.203l-0.098,0.206l-0.095,0.207l-0.093,0.208l-0.09,0.21l-0.088,0.211l-0.085,0.213l-0.083,0.214l-0.081,0.216l-0.078,0.217l-0.075,0.218l-0.073,0.22l-0.071,0.221l-0.068,0.222l-0.066,0.224l-0.063,0.225l-0.061,0.227l-0.059,0.228l-0.056,0.229l-0.054,0.23l-0.051,0.231l-0.049,0.233l-0.047,0.234l-0.044,0.235l-0.041,0.236l-0.04,0.238l-0.037,0.239l-0.034,0.239l-0.033,0.241l-0.029,0.242l-0.028,0.243l-0.025,0.244l-0.023,0.246l-0.02,0.246l-0.018,0.247l-0.016,0.249l-0.013,0.249l-0.011,0.25l-0.008,0.252l-0.007,0.252l-0.252,0.006l-0.251,0.009l-0.25,0.011l-0.25,0.013l-0.248,0.015l-0.247,0.018l-0.247,0.021l-0.245,0.022l-0.244,0.026l-0.243,0.027l-0.242,0.03l-0.241,0.032l-0.24,0.035l-0.238,0.037l-0.238,0.039l-0.236,0.042l-0.235,0.044l-0.234,0.046l-0.233,0.049l-0.232,0.052l-0.23,0.053l-0.229,0.056l-0.228,0.059l-0.226,0.061l-0.225,0.063l-0.224,0.066l-0.222,0.068l-0.222,0.071l-0.219,0.073l-0.219,0.076l-0.217,0.078l-0.215,0.08l-0.215,0.083l-0.212,0.085l-0.212,0.088l-0.209,0.091l-0.209,0.092l-0.207,0.095l-0.205,0.098l-0.204,0.1l-0.202,0.103l-0.201,0.105l-0.199,0.107l-0.198,0.11l-0.195,0.113l-0.195,0.115l-0.193,0.117l-0.191,0.12l-0.094,0.061l-0.095,0.062l-0.094,0.062l-0.094,0.063l-0.093,0.063l-0.093,0.065l-0.092,0.064l-0.092,0.066l-0.092,0.066l-0.091,0.066l-0.09,0.067l-0.09,0.068l-0.09,0.069l-0.09,0.069l-0.088,0.069l-0.089,0.071l-0.088,0.071l-0.088,0.072l-0.087,0.072l-0.086,0.073l-0.086,0.073l-0.086,0.074l-0.086,0.075l-0.084,0.076l-0.085,0.076l-0.084,0.076l-0.083,0.078l-0.083,0.078l-0.083,0.078l-0.082,0.08l-0.081,0.08l-0.081,0.08l-0.118,0.119l-0.117,0.12l-0.115,0.121l-0.114,0.122l-0.112,0.124l-0.111,0.124l-0.11,0.125l-0.108,0.126l-0.107,0.127l-0.105,0.128l-0.105,0.129l-0.102,0.13l-0.102,0.131l-0.1,0.131l-0.099,0.133l-0.097,0.134l-0.096,0.134l-0.095,0.136l-0.093,0.136l-0.092,0.138l-0.091,0.138l-0.089,0.139l-0.088,0.14l-0.087,0.141l-0.085,0.142l-0.084,0.143l-0.083,0.143l-0.081,0.145l-0.08,0.145l-0.079,0.146l-0.077,0.147l-0.076,0.148l-0.075,0.149l-0.073,0.149l-0.072,0.15l-0.071,0.152l-0.069,0.151l-0.068,0.153l-0.066,0.154l-0.066,0.154l-0.064,0.155l-0.063,0.156l-0.061,0.157l-0.06,0.157l-0.059,0.158l-0.057,0.159l-0.056,0.16l-0.055,0.16l-0.054,0.162l-0.052,0.162l-0.051,0.162l-0.049,0.164l-0.049,0.164l-0.046,0.164l-0.046,0.166l-0.045,0.166l-0.043,0.167l-0.041,0.167l-0.041,0.169l-0.039,0.169l-0.038,0.169l-0.037,0.17l-0.035,0.171l-0.034,0.172l-0.033,0.172l-0.031,0.173l-0.03,0.173l-0.029,0.174l-0.028,0.175l-0.026,0.175l-0.025,0.176l-0.024,0.177l-0.022,0.177l-0.021,0.178l-0.02,0.178l-0.019,0.179l-0.017,0.179l-0.016,0.18l-0.015,0.181l-0.014,0.181l-0.012,0.182l-0.011,0.182l-0.01,0.183l-0.008,0.183l-0.008,0.184l-0.006,0.184l-0.004,0.185l-0.004,0.185l-0.002,0.186l-0.001,0.187l0,0.187l0.002,0.187l0.003,0.188l0.004,0.188l0.005,0.189l0.007,0.189l0.007,0.19l0.01,0.19l0.01,0.19l0.011,0.191l0.013,0.192l0.014,0.192l0.015,0.192l0.017,0.192l0.018,0.194l0.019,0.193l0.02,0.194l0.021,0.194l0.023,0.195l0.024,0.195l0.025,0.195l0.026,0.196l0.028,0.196l0.028,0.197l0.03,0.197l0.032,0.197l0.032,0.197l0.034,0.198l0.035,0.198l0.036,0.199l0.037,0.198l0.038,0.2l0.04,0.199l0.041,0.2l0.042,0.2l0.044,0.2l0.044,0.2l0.046,0.201l-0.089,0.099l-0.087,0.1l-0.084,0.101l-0.083,0.103l-0.042,-0.027l-0.332,0.31l-0.405,0.376l-0.554,0.514l-0.698,0.642l-0.401,0.368l-0.433,0.397l-0.466,0.425l-0.498,0.453l-0.528,0.479l-0.558,0.505l-0.587,0.53l-0.615,0.553l-0.642,0.576l-0.669,0.597l-0.694,0.619l-0.719,0.638l-0.742,0.657l-0.766,0.675l-0.787,0.691l-0.809,0.708l-0.829,0.722l-0.849,0.737l-0.868,0.749l-0.885,0.762l-0.902,0.772l-0.918,0.783l-0.465,0.395l-0.468,0.397l-0.473,0.399l-0.475,0.401l-0.479,0.402l-0.483,0.405l-0.485,0.406l-0.489,0.407l-0.491,0.409l-0.495,0.41l-0.497,0.411l-0.499,0.412l-0.503,0.413l-0.504,0.414l-0.507,0.414l-0.509,0.414l-0.512,0.415l-0.513,0.415l-0.515,0.416l-0.517,0.415l-0.519,0.415l-0.52,0.415l-0.521,0.415l-0.523,0.414l-0.524,0.413l-0.526,0.413l-0.526,0.412l-0.527,0.41l-0.529,0.41l-0.528,0.409l-0.53,0.407l-0.53,0.406l-0.53,0.404l-0.53,0.402l-0.531,0.401l-0.531,0.399l-0.531,0.396l-0.53,0.395l-0.53,0.392l-0.53,0.39l-0.53,0.387l-0.529,0.384l-0.528,0.382l-0.527,0.379l-0.527,0.375l-0.525,0.373l-0.525,0.369l-0.523,0.366l-0.522,0.363l-0.52,0.359l-0.519,0.355l-0.517,0.351l-0.516,0.347l-0.513,0.343l-0.512,0.339l-0.51,0.334l-0.507,0.33l-0.505,0.326l-0.503,0.32l-0.5,0.316l-0.498,0.311l-0.494,0.306l-0.247,0.15l-0.245,0.15l-0.245,0.148l-0.244,0.147l-0.229,0.136l-0.23,0.136l-0.232,0.135l-0.234,0.135l-0.235,0.134l-0.238,0.134l-0.239,0.133l-0.24,0.133l-0.243,0.132l-0.244,0.132l-0.246,0.131l-0.248,0.131l-0.25,0.131l-0.251,0.13l-0.253,0.13l-0.254,0.13l-0.257,0.129l-0.258,0.129l-0.259,0.129l-0.261,0.128l-0.263,0.128l-0.265,0.128l-0.266,0.127l-0.268,0.127l-0.269,0.127l-0.271,0.127l-0.272,0.126l-0.275,0.127l-0.275,0.126l-0.278,0.126l-0.278,0.126l-0.281,0.125l-0.565,0.251l-0.571,0.25l-0.578,0.25l-0.583,0.25l-0.589,0.249l-0.595,0.25l-0.601,0.249l-0.606,0.25l-0.612,0.25l-0.618,0.25l-0.623,0.25l-0.628,0.251l-0.633,0.252l-0.639,0.253l-0.644,0.253l-0.649,0.254l-0.654,0.255l-0.659,0.256l-1.333,0.516l-1.351,0.522l-1.37,0.528l-1.388,0.536l-1.405,0.543l-1.421,0.553l-0.717,0.279l-0.721,0.283l-0.725,0.284l-0.728,0.288l-0.732,0.29l-0.736,0.293l-0.74,0.296l-0.743,0.3l-0.747,0.302l-0.75,0.306l-0.753,0.309l-0.756,0.313l-0.76,0.316l-0.763,0.32l-0.766,0.323l-0.769,0.328l-0.771,0.331l-0.775,0.336l-0.777,0.34l-0.78,0.344l-0.391,0.174l-0.392,0.174l-0.392,0.176l-0.393,0.177l-0.393,0.178l-0.395,0.18l-0.394,0.18l-0.396,0.182l-0.396,0.183l-0.396,0.184l-0.397,0.185l-0.398,0.187l-0.398,0.187l-0.398,0.189l-0.4,0.191l-0.399,0.191l-0.401,0.193l-0.4,0.194l-0.402,0.196l-0.401,0.197l-0.403,0.198l-0.402,0.199l-0.403,0.201l-0.404,0.202l-0.404,0.204l-0.405,0.205l-0.405,0.207l-0.405,0.207l-0.406,0.21l-0.406,0.211l-0.406,0.212l-0.407,0.214l-0.407,0.215l-0.408,0.216l-0.408,0.219l-0.408,0.219l-0.409,0.222l-0.409,0.223l-0.409,0.224l-0.41,0.226l-0.41,0.228l-0.41,0.229l-0.41,0.231l-0.411,0.232l-0.411,0.234l-0.412,0.236l-0.411,0.237l-0.412,0.239l-0.412,0.241l-0.412,0.243l-0.413,0.244l-0.412,0.246l-0.413,0.247l-0.413,0.25l-0.413,0.251l-0.414,0.253l-0.413,0.254l-0.414,0.257l-0.414,0.258l-0.414,0.26l-0.414,0.262l-0.414,0.264l-0.414,0.266l-0.415,0.267l-0.414,0.27l-0.415,0.271l-0.415,0.273l-0.414,0.276l-0.415,0.277l-0.415,0.279l-0.415,0.281l-0.415,0.283l-0.415,0.285l-0.414,0.287l-0.415,0.289l-0.415,0.291l-0.415,0.293l-0.415,0.295l-0.415,0.297l-0.415,0.299l-0.414,0.302l-0.415,0.303l-0.415,0.306l-0.414,0.307l-0.415,0.31l-0.414,0.312l-0.414,0.314l-0.414,0.316l-0.414,0.319l-0.414,0.32l-0.414,0.323l-0.414,0.325l-0.413,0.328l-0.413,0.329l-0.413,0.332l-0.413,0.334l-0.413,0.336l-0.413,0.339l-0.412,0.341l-0.412,0.343l-0.412,0.346l-0.411,0.348l-0.412,0.35l-0.411,0.353l-0.411,0.355l-0.41,0.357l-0.411,0.36l-0.41,0.362l-0.409,0.365l-0.41,0.367l-0.409,0.37l-0.409,0.372l-0.408,0.374l-0.408,0.377l-0.408,0.38l-0.407,0.382l-0.407,0.385l-0.407,0.387l-0.406,0.389l-0.406,0.393l-0.405,0.395l-0.405,0.397l-0.405,0.4l-0.404,0.403l-0.263,0.264l-0.259,0.266l-0.257,0.267l-0.253,0.267l-0.25,0.269l-0.248,0.27l-0.244,0.271l-0.241,0.272l-0.065,-0.066l-171.765,171.765l0.015,0.015l-0.136,0.154l-0.135,0.155l-0.133,0.156l-0.13,0.159l-0.129,0.159l-0.126,0.161l-0.125,0.163l-0.122,0.164l-0.121,0.166l-0.118,0.168l-0.117,0.168l-0.115,0.171l-0.112,0.171l-0.111,0.174l-0.108,0.174l-0.107,0.176l-0.104,0.178l-0.103,0.179l-0.101,0.181l-0.099,0.181l-0.096,0.184l-0.095,0.184l-0.093,0.187l-0.091,0.187l-0.089,0.189l-0.086,0.19l-0.085,0.192l-0.083,0.193l-0.082,0.194l-0.079,0.196l-0.077,0.197l-0.075,0.198l-0.073,0.2l-0.072,0.201l-0.069,0.202l-0.068,0.204l-0.065,0.205l-0.064,0.206l-0.062,0.208l-0.06,0.208l-0.057,0.21l-0.056,0.211l-0.055,0.213l-0.052,0.213l-0.05,0.215l-0.048,0.216l-0.047,0.218l-0.044,0.218l-0.043,0.22l-0.041,0.221l-0.039,0.222l-0.037,0.223l-0.035,0.225l-0.033,0.225l-0.032,0.227l-0.029,0.228l-0.028,0.229l-0.026,0.23l-0.023,0.231l-0.022,0.232l-0.021,0.233l-0.018,0.235l-0.016,0.235l-0.015,0.237l-0.013,0.238l-0.011,0.238l-0.009,0.24l-0.007,0.241l-0.005,0.242l-0.004,0.243l-0.002,0.243l0.001,0.245l0.002,0.246l0.003,0.247l0.006,0.248l0.007,0.249l0.01,0.249l0.011,0.251l0.013,0.252l0.014,0.252l0.017,0.254l0.018,0.254l0.02,0.256l0.022,0.256l0.024,0.257l0.025,0.258l0.027,0.259l0.03,0.26l0.03,0.261l0.033,0.261l0.034,0.263l0.037,0.263l0.038,0.264l0.039,0.265l0.042,0.266l0.043,0.266l0.045,0.268l0.047,0.268l0.049,0.269l0.05,0.27l0.052,0.27l0.054,0.271l0.056,0.272l0.057,0.273l0.059,0.274l0.061,0.274l0.062,0.275l0.065,0.275l0.066,0.277l0.067,0.277l0.07,0.278l0.071,0.278l0.073,0.279l0.075,0.28l0.076,0.28l0.078,0.281l0.08,0.282l0.081,0.282l0.083,0.283l0.085,0.284l0.087,0.284l0.088,0.285l0.09,0.285l0.092,0.286l0.093,0.287l0.095,0.287l0.097,0.288l0.098,0.288l0.101,0.289l0.101,0.289l0.104,0.29l0.105,0.29l0.107,0.291l0.108,0.292l0.11,0.292l0.112,0.292l0.113,0.293l0.116,0.293l0.116,0.294l0.119,0.294l0.12,0.295l0.121,0.295l0.124,0.296l0.125,0.296l0.126,0.296l0.128,0.297l0.13,0.297l0.132,0.298l0.133,0.298l0.135,0.298l0.136,0.299l0.138,0.299l0.14,0.299l0.141,0.3l0.143,0.3l0.144,0.3l0.146,0.301l0.148,0.301l0.149,0.302l0.151,0.301l0.152,0.302l0.154,0.302l0.155,0.303l0.158,0.303l0.158,0.303l0.161,0.303l0.162,0.304l0.163,0.303l0.165,0.304l0.167,0.304l0.168,0.305l0.17,0.304l0.171,0.305l0.173,0.305l0.174,0.305l0.176,0.305l0.178,0.306l0.179,0.305l0.18,0.306l0.182,0.306l0.184,0.306l0.185,0.306l0.187,0.306l0.188,0.307l0.19,0.306l0.191,0.306l0.193,0.307l0.195,0.307l0.195,0.306l0.198,0.307l0.199,0.307l0.2,0.307l0.202,0.306l0.204,0.307l0.204,0.307l0.207,0.307l0.208,0.307l0.209,0.307l0.211,0.307l0.213,0.306l0.213,0.307l0.216,0.307l0.217,0.307l0.218,0.306l0.22,0.307l0.221,0.306l0.223,0.307l0.224,0.306l0.226,0.306l0.227,0.306l0.228,0.306l0.23,0.306l0.232,0.306l0.233,0.305l0.234,0.306l0.236,0.305l0.237,0.305l0.239,0.305l0.24,0.305l0.242,0.304l0.243,0.304l0.244,0.305l0.246,0.303l0.247,0.304l0.249,0.304l0.25,0.303l0.252,0.303l0.253,0.303l0.254,0.302l0.256,0.302l0.257,0.302l0.258,0.302l0.26,0.301l0.262,0.301l0.263,0.301l0.264,0.3l0.265,0.3l0.267,0.3l0.268,0.299l0.27,0.299l0.271,0.299l0.273,0.298l0.273,0.298l0.276,0.298l0.276,0.297l0.278,0.297l0.279,0.296l0.281,0.296l0.282,0.296l0.283,0.295l0.285,0.294l0.286,0.294l0.287,0.294l0.289,0.293l0.29,0.293l0.292,0.292l0.292,0.292l0.293,0.29l0.293,0.289l0.294,0.287l0.294,0.286l0.294,0.285l0.295,0.283l0.296,0.282l0.296,0.281l0.296,0.279l0.297,0.278l0.297,0.276l0.298,0.276l0.298,0.273l0.298,0.273l0.299,0.271l0.299,0.27l0.299,0.268l0.3,0.267l0.3,0.265l0.3,0.264l0.301,0.263l0.301,0.262l0.301,0.26l0.302,0.258l0.302,0.257l0.302,0.256l0.302,0.254l0.303,0.253l0.303,0.252l0.303,0.25l0.304,0.249l0.304,0.247l0.303,0.246l0.305,0.244l0.304,0.243l0.304,0.242l0.305,0.24l0.305,0.239l0.305,0.237l0.305,0.236l0.306,0.234l0.305,0.233l0.306,0.232l0.306,0.23l0.306,0.228l0.306,0.227l0.306,0.226l0.306,0.224l0.307,0.223l0.306,0.221l0.307,0.22l0.306,0.218l0.307,0.217l0.307,0.216l0.307,0.213l0.306,0.213l0.307,0.211l0.307,0.209l0.307,0.208l0.307,0.207l0.307,0.204l0.307,0.204l0.306,0.202l0.307,0.2l0.307,0.199l0.307,0.198l0.306,0.195l0.307,0.195l0.307,0.193l0.306,0.191l0.306,0.19l0.307,0.188l0.306,0.187l0.306,0.185l0.306,0.184l0.306,0.182l0.306,0.18l0.305,0.179l0.306,0.178l0.305,0.176l0.305,0.174l0.305,0.173l0.305,0.171l0.304,0.17l0.305,0.168l0.304,0.167l0.304,0.165l0.303,0.163l0.304,0.162l0.303,0.161l0.303,0.158l0.303,0.158l0.303,0.155l0.302,0.154l0.302,0.152l0.301,0.151l0.302,0.149l0.301,0.148l0.301,0.146l0.3,0.144l0.3,0.143l0.3,0.141l0.299,0.14l0.299,0.138l0.299,0.136l0.298,0.135l0.298,0.133l0.298,0.132l0.297,0.13l0.297,0.128l0.296,0.126l0.296,0.125l0.296,0.124l0.295,0.121l0.295,0.12l0.294,0.119l0.294,0.116l0.293,0.116l0.293,0.113l0.292,0.112l0.292,0.11l0.292,0.108l0.291,0.107l0.29,0.105l0.29,0.104l0.289,0.101l0.289,0.101l0.288,0.098l0.288,0.097l0.287,0.095l0.287,0.093l0.286,0.092l0.285,0.09l0.285,0.088l0.284,0.087l0.284,0.085l0.283,0.083l0.282,0.081l0.282,0.08l0.281,0.078l0.28,0.076l0.28,0.075l0.279,0.073l0.278,0.071l0.278,0.07l0.277,0.067l0.277,0.066l0.275,0.065l0.275,0.062l0.274,0.061l0.274,0.059l0.273,0.057l0.272,0.056l0.271,0.054l0.27,0.052l0.27,0.05l0.269,0.049l0.268,0.047l0.268,0.045l0.266,0.043l0.266,0.042l0.265,0.039l0.264,0.038l0.263,0.037l0.263,0.034l0.261,0.033l0.261,0.03l0.26,0.03l0.259,0.027l0.258,0.025l0.257,0.024l0.256,0.022l0.256,0.02l0.254,0.018l0.254,0.017l0.252,0.014l0.252,0.013l0.251,0.011l0.249,0.01l0.249,0.007l0.248,0.006l0.247,0.003l0.246,0.002l0.245,0.001l0.243,-0.002l0.243,-0.004l0.242,-0.005l0.241,-0.007l0.24,-0.009l0.238,-0.011l0.238,-0.013l0.237,-0.015l0.235,-0.016l0.235,-0.018l0.233,-0.021l0.232,-0.022l0.231,-0.023l0.23,-0.026l0.229,-0.028l0.228,-0.029l0.227,-0.032l0.225,-0.033l0.225,-0.035l0.223,-0.037l0.222,-0.039l0.221,-0.041l0.22,-0.043l0.218,-0.044l0.218,-0.047l0.216,-0.048l0.215,-0.05l0.213,-0.052l0.213,-0.055l0.211,-0.056l0.21,-0.057l0.208,-0.06l0.208,-0.062l0.206,-0.064l0.205,-0.065l0.204,-0.068l0.202,-0.069l0.201,-0.072l0.2,-0.073l0.198,-0.075l0.197,-0.077l0.196,-0.079l0.194,-0.082l0.193,-0.083l0.192,-0.085l0.19,-0.086l0.189,-0.089l0.187,-0.091l0.187,-0.093l0.184,-0.095l0.184,-0.096l0.181,-0.099l0.181,-0.101l0.179,-0.103l0.178,-0.104l0.176,-0.107l0.174,-0.108l0.174,-0.111l0.171,-0.112l0.171,-0.115l0.168,-0.117l0.168,-0.118l0.166,-0.121l0.164,-0.122l0.163,-0.125l0.161,-0.126l0.159,-0.129l0.159,-0.13l0.156,-0.133l0.155,-0.135l0.154,-0.136l0.015,0.015l0.604,-0.603l171.161,-171.162l-0.066,-0.065l0.272,-0.241l0.271,-0.244l0.27,-0.248l0.269,-0.25l0.267,-0.253l0.267,-0.257l0.266,-0.259l0.264,-0.263l0.403,-0.404l0.4,-0.405l0.397,-0.405l0.395,-0.405l0.393,-0.406l0.389,-0.406l0.387,-0.407l0.385,-0.407l0.382,-0.407l0.38,-0.408l0.377,-0.408l0.374,-0.408l0.372,-0.409l0.37,-0.409l0.367,-0.41l0.365,-0.409l0.362,-0.41l0.36,-0.411l0.357,-0.41l0.355,-0.411l0.353,-0.411l0.35,-0.412l0.348,-0.411l0.346,-0.412l0.343,-0.412l0.341,-0.412l0.339,-0.413l0.336,-0.413l0.334,-0.413l0.332,-0.413l0.329,-0.413l0.328,-0.413l0.325,-0.414l0.323,-0.414l0.32,-0.414l0.319,-0.414l0.316,-0.414l0.314,-0.414l0.312,-0.414l0.31,-0.415l0.307,-0.414l0.306,-0.415l0.303,-0.415l0.302,-0.414l0.299,-0.415l0.297,-0.415l0.295,-0.415l0.293,-0.415l0.291,-0.415l0.289,-0.415l0.287,-0.414l0.285,-0.415l0.283,-0.415l0.281,-0.415l0.279,-0.415l0.277,-0.415l0.276,-0.414l0.273,-0.415l0.271,-0.415l0.27,-0.414l0.267,-0.415l0.266,-0.414l0.264,-0.414l0.262,-0.414l0.26,-0.414l0.258,-0.414l0.257,-0.414l0.254,-0.413l0.253,-0.414l0.251,-0.413l0.25,-0.413l0.247,-0.413l0.246,-0.412l0.244,-0.413l0.243,-0.412l0.241,-0.412l0.239,-0.412l0.237,-0.411l0.236,-0.412l0.234,-0.411l0.232,-0.411l0.231,-0.41l0.229,-0.41l0.228,-0.41l0.226,-0.41l0.224,-0.409l0.223,-0.409l0.222,-0.409l0.219,-0.408l0.219,-0.408l0.216,-0.408l0.215,-0.407l0.214,-0.407l0.212,-0.406l0.211,-0.406l0.21,-0.406l0.207,-0.405l0.207,-0.405l0.205,-0.405l0.204,-0.404l0.202,-0.404l0.201,-0.403l0.199,-0.402l0.198,-0.403l0.197,-0.401l0.196,-0.402l0.194,-0.4l0.193,-0.401l0.191,-0.399l0.191,-0.4l0.189,-0.398l0.187,-0.398l0.187,-0.398l0.185,-0.397l0.184,-0.396l0.183,-0.396l0.182,-0.396l0.18,-0.394l0.18,-0.395l0.178,-0.393l0.177,-0.393l0.176,-0.392l0.174,-0.392l0.174,-0.391l0.344,-0.78l0.34,-0.777l0.336,-0.775l0.331,-0.771l0.328,-0.769l0.323,-0.766l0.32,-0.763l0.316,-0.76l0.313,-0.756l0.309,-0.753l0.306,-0.75l0.302,-0.747l0.3,-0.743l0.296,-0.74l0.293,-0.736l0.29,-0.732l0.288,-0.728l0.284,-0.725l0.283,-0.721l0.279,-0.717l0.553,-1.421l0.543,-1.405l0.536,-1.388l0.528,-1.37l0.522,-1.351l0.516,-1.333l0.256,-0.659l0.255,-0.654l0.254,-0.649l0.253,-0.644l0.253,-0.639l0.252,-0.633l0.251,-0.628l0.25,-0.623l0.25,-0.618l0.25,-0.612l0.25,-0.606l0.249,-0.601l0.25,-0.595l0.249,-0.589l0.25,-0.583l0.25,-0.578l0.25,-0.571l0.251,-0.565l0.125,-0.281l0.126,-0.278l0.126,-0.278l0.126,-0.275l0.127,-0.275l0.126,-0.272l0.127,-0.271l0.127,-0.269l0.127,-0.268l0.127,-0.266l0.128,-0.265l0.128,-0.263l0.128,-0.261l0.129,-0.259l0.129,-0.258l0.129,-0.257l0.13,-0.254l0.13,-0.253l0.13,-0.251l0.131,-0.25l0.131,-0.248l0.131,-0.246l0.132,-0.244l0.132,-0.243l0.133,-0.24l0.133,-0.239l0.134,-0.238l0.134,-0.235l0.135,-0.234l0.135,-0.232l0.136,-0.23l0.136,-0.229l0.147,-0.244l0.148,-0.245l0.15,-0.245l0.15,-0.247l0.306,-0.494l0.311,-0.498l0.316,-0.5l0.32,-0.503l0.326,-0.505l0.33,-0.507l0.334,-0.51l0.339,-0.512l0.343,-0.513l0.347,-0.516l0.351,-0.517l0.355,-0.519l0.359,-0.52l0.363,-0.522l0.366,-0.523l0.369,-0.525l0.373,-0.525l0.375,-0.527l0.379,-0.527l0.382,-0.528l0.384,-0.529l0.387,-0.53l0.39,-0.53l0.392,-0.53l0.395,-0.53l0.396,-0.531l0.399,-0.531l0.401,-0.531l0.402,-0.53l0.404,-0.53l0.406,-0.53l0.407,-0.53l0.409,-0.528l0.41,-0.529l0.41,-0.527l0.412,-0.526l0.413,-0.526l0.413,-0.524l0.414,-0.523l0.415,-0.521l0.415,-0.52l0.415,-0.519l0.415,-0.517l0.416,-0.515l0.415,-0.513l0.415,-0.512l0.414,-0.509l0.414,-0.507l0.414,-0.504l0.413,-0.503l0.412,-0.499l0.411,-0.497l0.41,-0.495l0.409,-0.491l0.407,-0.489l0.406,-0.485l0.405,-0.483l0.402,-0.479l0.401,-0.475l0.399,-0.473l0.397,-0.468l0.395,-0.465l0.783,-0.918l0.772,-0.902l0.762,-0.885l0.749,-0.868l0.737,-0.849l0.722,-0.829l0.708,-0.809l0.691,-0.787l0.675,-0.766l0.657,-0.742l0.638,-0.719l0.619,-0.694l0.597,-0.669l0.576,-0.642l0.553,-0.615l0.53,-0.587l0.505,-0.558l0.479,-0.528l0.453,-0.498l0.425,-0.466l0.397,-0.433l0.368,-0.401l0.642,-0.698l0.514,-0.554l0.376,-0.405l0.31,-0.332l-0.027,-0.042l0.103,-0.083l0.101,-0.084l0.1,-0.087l0.099,-0.089l0.201,0.046l0.2,0.044l0.2,0.044l0.2,0.042l0.2,0.041l0.199,0.04l0.2,0.038l0.198,0.037l0.199,0.036l0.198,0.035l0.198,0.034l0.197,0.032l0.197,0.032l0.197,0.03l0.197,0.028l0.196,0.028l0.196,0.026l0.195,0.025l0.195,0.024l0.195,0.023l0.194,0.021l0.194,0.02l0.193,0.019l0.194,0.018l0.192,0.017l0.192,0.015l0.192,0.014l0.192,0.013l0.191,0.011l0.19,0.01l0.19,0.01l0.19,0.007l0.189,0.007l0.189,0.005l0.188,0.004l0.188,0.003l0.187,0.002l0.187,0l0.187,-0.001l0.186,-0.002l0.185,-0.004l0.185,-0.004l0.184,-0.006l0.184,-0.008l0.183,-0.008l0.183,-0.01l0.182,-0.011l0.182,-0.012l0.181,-0.014l0.181,-0.015l0.18,-0.016l0.179,-0.017l0.179,-0.019l0.178,-0.02l0.178,-0.021l0.177,-0.022l0.177,-0.024l0.176,-0.025l0.175,-0.026l0.175,-0.028l0.174,-0.029l0.173,-0.03l0.173,-0.031l0.172,-0.033l0.172,-0.034l0.171,-0.035l0.17,-0.037l0.169,-0.038l0.169,-0.039l0.169,-0.041l0.167,-0.041l0.167,-0.043l0.166,-0.045l0.166,-0.046l0.164,-0.046l0.164,-0.049l0.164,-0.049l0.162,-0.051l0.162,-0.052l0.162,-0.054l0.16,-0.055l0.16,-0.056l0.159,-0.057l0.158,-0.059l0.157,-0.06l0.157,-0.061l0.156,-0.063l0.155,-0.064l0.154,-0.066l0.154,-0.066l0.153,-0.068l0.151,-0.069l0.152,-0.071l0.15,-0.072l0.149,-0.073l0.149,-0.075l0.148,-0.076l0.147,-0.077l0.146,-0.079l0.145,-0.08l0.145,-0.081l0.143,-0.083l0.143,-0.084l0.142,-0.085l0.141,-0.087l0.14,-0.088l0.139,-0.089l0.138,-0.091l0.138,-0.092l0.136,-0.093l0.136,-0.095l0.134,-0.096l0.134,-0.097l0.133,-0.099l0.131,-0.1l0.131,-0.102l0.13,-0.102l0.129,-0.105l0.128,-0.105l0.127,-0.107l0.126,-0.108l0.125,-0.11l0.124,-0.111l0.124,-0.112l0.122,-0.114l0.121,-0.115l0.12,-0.117l0.119,-0.118l0.08,-0.081l0.08,-0.081l0.08,-0.082l0.078,-0.083l0.078,-0.083l0.078,-0.083l0.076,-0.084l0.076,-0.085l0.076,-0.084l0.075,-0.086l0.074,-0.086l0.073,-0.086l0.073,-0.086l0.072,-0.087l0.072,-0.088l0.071,-0.088l0.071,-0.089l0.069,-0.088l0.069,-0.09l0.069,-0.09l0.068,-0.09l0.067,-0.09l0.066,-0.091l0.066,-0.092l0.066,-0.092l0.064,-0.092l0.065,-0.093l0.063,-0.093l0.063,-0.094l0.062,-0.094l0.062,-0.095l0.061,-0.094l0.12,-0.191l0.117,-0.193l0.115,-0.195l0.113,-0.195l0.11,-0.198l0.107,-0.199l0.105,-0.201l0.103,-0.202l0.1,-0.204l0.098,-0.205l0.095,-0.207l0.092,-0.209l0.091,-0.209l0.088,-0.212l0.085,-0.212l0.083,-0.215l0.08,-0.215l0.078,-0.217l0.076,-0.219l0.073,-0.219l0.071,-0.222l0.068,-0.222l0.066,-0.224l0.063,-0.225l0.061,-0.226l0.059,-0.228l0.056,-0.229l0.053,-0.23l0.052,-0.232l0.049,-0.233l0.046,-0.234l0.044,-0.235l0.042,-0.236l0.039,-0.238l0.037,-0.238l0.035,-0.24l0.032,-0.241l0.03,-0.242l0.027,-0.243l0.026,-0.244l0.022,-0.245l0.021,-0.247l0.018,-0.247l0.015,-0.248l0.013,-0.25l0.011,-0.25l0.009,-0.251l0.006,-0.252l0.252,-0.007l0.252,-0.008l0.25,-0.011l0.249,-0.013l0.249,-0.016l0.247,-0.018l0.246,-0.02l0.246,-0.023l0.244,-0.025l0.243,-0.028l0.242,-0.029l0.241,-0.033l0.239,-0.034l0.239,-0.037l0.238,-0.04l0.236,-0.041l0.235,-0.044l0.234,-0.047l0.233,-0.049l0.231,-0.051l0.23,-0.054l0.229,-0.056l0.228,-0.059l0.227,-0.061l0.225,-0.063l0.224,-0.066l0.222,-0.068l0.221,-0.071l0.22,-0.073l0.218,-0.075l0.217,-0.078l0.216,-0.081l0.214,-0.083l0.213,-0.085l0.211,-0.088l0.21,-0.09l0.208,-0.093l0.207,-0.095l0.206,-0.098l0.203,-0.1l0.203,-0.102l0.2,-0.105l0.2,-0.108l0.197,-0.11l0.196,-0.113l0.194,-0.115l0.193,-0.117l0.191,-0.12l0.095,-0.061l0.095,-0.062l0.094,-0.062l0.093,-0.063l0.094,-0.063l0.092,-0.064l0.093,-0.065l0.092,-0.065l0.091,-0.066l0.091,-0.067l0.091,-0.067l0.09,-0.068l0.09,-0.068l0.089,-0.069l0.089,-0.07l0.089,-0.07l0.088,-0.071l0.087,-0.072l0.087,-0.072l0.087,-0.073l0.086,-0.074l0.086,-0.074l0.085,-0.075l0.085,-0.075l0.084,-0.076l0.084,-0.077l0.084,-0.077l0.083,-0.078l0.082,-0.079l0.082,-0.079l0.082,-0.08l0.081,-0.081l0.117,-0.118l0.115,-0.119l0.115,-0.12l0.113,-0.121l0.111,-0.122l0.11,-0.123l0.109,-0.125l0.108,-0.125l0.106,-0.126l0.105,-0.126l0.103,-0.128l0.103,-0.129l0.1,-0.13l0.1,-0.131l0.098,-0.131l0.097,-0.133l0.095,-0.133l0.095,-0.135l0.092,-0.135l0.092,-0.136l0.09,-0.137l0.089,-0.138l0.088,-0.139l0.086,-0.14l0.085,-0.14l0.083,-0.142l0.082,-0.142l0.081,-0.143l0.08,-0.144l0.078,-0.145l0.077,-0.146l0.076,-0.146l0.074,-0.147l0.073,-0.148l0.072,-0.149l0.071,-0.15l0.069,-0.151l0.068,-0.151l0.066,-0.152l0.065,-0.153l0.064,-0.154l0.063,-0.154l0.061,-0.155l0.06,-0.156l0.059,-0.157l0.058,-0.157l0.056,-0.159l0.055,-0.159l0.053,-0.159l0.052,-0.161l0.051,-0.161l0.05,-0.162l0.049,-0.162l0.047,-0.163l0.046,-0.164l0.044,-0.165l0.043,-0.165l0.043,-0.166l0.04,-0.167l0.04,-0.167l0.038,-0.168l0.037,-0.169l0.036,-0.169l0.034,-0.17l0.033,-0.17l0.032,-0.171l0.03,-0.172l0.03,-0.173l0.028,-0.173l0.027,-0.173l0.025,-0.175l0.024,-0.174l0.023,-0.176l0.022,-0.176l0.021,-0.177l0.019,-0.177l0.018,-0.177l0.017,-0.179l0.015,-0.179l0.014,-0.179l0.013,-0.18l0.012,-0.18l0.011,-0.181l0.009,-0.182l0.008,-0.182l0.007,-0.183l0.005,-0.183l0.004,-0.183l0.003,-0.184l0.002,-0.185l0.001,-0.185l-0.001,-0.186l-0.002,-0.186l-0.003,-0.186l-0.004,-0.187l-0.006,-0.188l-0.007,-0.187l-0.008,-0.189l-0.009,-0.188l-0.01,-0.19l-0.012,-0.189l-0.013,-0.19l-0.014,-0.191l-0.016,-0.191l-0.016,-0.191l-0.018,-0.192l-0.019,-0.192l-0.02,-0.192l-0.022,-0.193l-0.022,-0.193l-0.024,-0.194l-0.025,-0.194l-0.027,-0.194l-0.027,-0.195l-0.029,-0.195l-0.03,-0.195l-0.031,-0.196l-0.032,-0.196l-0.034,-0.196l-0.034,-0.197l-0.036,-0.197l-0.037,-0.197l-0.038,-0.198l-0.04,-0.198l-0.041,-0.198l-0.041,-0.198l-0.043,-0.199l-0.045,-0.199l-0.045,-0.199l-0.047,-0.2l-0.047,-0.2l-0.049,-0.2l-0.051,-0.2l-0.051,-0.2l-0.052,-0.201l-0.054,-0.201l-0.055,-0.201l-0.056,-0.202l-0.057,-0.201l-0.059,-0.202l-0.059,-0.202l-0.061,-0.203l-0.062,-0.202l-0.063,-0.203l-0.064,-0.202l-0.065,-0.203l-0.067,-0.203l-0.067,-0.204l-0.069,-0.203l-0.07,-0.204l-0.072,-0.203l-0.072,-0.204l-0.073,-0.204l-0.075,-0.204l-0.076,-0.204l-0.077,-0.205l-0.078,-0.204l-0.079,-0.204l-0.08,-0.205l-0.082,-0.205l-0.083,-0.204l-0.083,-0.205l-0.085,-0.205l-0.086,-0.205l-0.088,-0.205l-0.088,-0.205l-0.09,-0.205l-0.09,-0.206l-0.092,-0.205l-0.093,-0.205l-0.094,-0.205l-0.095,-0.206l-0.096,-0.205l-0.098,-0.205l-0.098,-0.206l-0.1,-0.205l-0.101,-0.205l-0.102,-0.205l-0.103,-0.206l-0.104,-0.205l-0.105,-0.205l-0.107,-0.205l-0.107,-0.205l-0.109,-0.205l-0.11,-0.205l-0.111,-0.205l-0.112,-0.205l-0.113,-0.205l-0.114,-0.205l-0.115,-0.204l-0.116,-0.205l-0.118,-0.204l-0.119,-0.205l-0.119,-0.204l-0.121,-0.204l-0.122,-0.204l-0.123,-0.204l-0.124,-0.204l-0.125,-0.203l-0.127,-0.204l-0.127,-0.203l-0.128,-0.203l-0.13,-0.203l-0.131,-0.203l-0.131,-0.203l-0.133,-0.202l-0.134,-0.202l-0.135,-0.203l-0.136,-0.201l-0.137,-0.202l-0.139,-0.202l-0.139,-0.201l-0.14,-0.201l-0.142,-0.201l-0.142,-0.2l-0.144,-0.201l-0.145,-0.2l-0.145,-0.2l-0.147,-0.199l-0.148,-0.2l-0.149,-0.199l-0.15,-0.199l-0.151,-0.198l-0.152,-0.199l-0.153,-0.198l-0.155,-0.197l-0.155,-0.198l-0.156,-0.197l-0.158,-0.197l-0.158,-0.196l-0.16,-0.196l-0.16,-0.196l-0.162,-0.195l-0.163,-0.196l-0.164,-0.194l-0.164,-0.195l-0.166,-0.194l-0.167,-0.194l-0.168,-0.193l-0.169,-0.193l-0.17,-0.193l-0.171,-0.192l-0.172,-0.192l-0.173,-0.191l-0.174,-0.191l-0.176,-0.191l-0.176,-0.19l-0.177,-0.19l-0.178,-0.189l-0.18,-0.189l-0.18,-0.188l-0.181,-0.188l-0.183,-0.188l-0.183,-0.187l-0.185,-0.187l-0.185,-0.186l-0.186,-0.185l-0.187,-0.185l-0.187,-0.183l-0.188,-0.183l-0.188,-0.181l-0.188,-0.18l-0.189,-0.18l-0.189,-0.178l-0.19,-0.177l-0.19,-0.176l-0.191,-0.176l-0.191,-0.174l-0.191,-0.173l-0.192,-0.172l-0.192,-0.171l-0.193,-0.17l-0.193,-0.169l-0.193,-0.168l-0.194,-0.167l-0.194,-0.166l-0.195,-0.164l-0.194,-0.164l-0.196,-0.163l-0.195,-0.162l-0.196,-0.16l-0.196,-0.16l-0.196,-0.158l-0.197,-0.158l-0.197,-0.156l-0.198,-0.155l-0.197,-0.155l-0.198,-0.153l-0.199,-0.152l-0.198,-0.151l-0.199,-0.15l-0.199,-0.149l-0.2,-0.148l-0.199,-0.147l-0.2,-0.145l-0.2,-0.145l-0.201,-0.144l-0.2,-0.142l-0.201,-0.142l-0.201,-0.14l-0.201,-0.139l-0.202,-0.139l-0.202,-0.137l-0.201,-0.136l-0.203,-0.135l-0.202,-0.134l-0.202,-0.133l-0.203,-0.131l-0.203,-0.131l-0.203,-0.13l-0.203,-0.128l-0.203,-0.127l-0.204,-0.127l-0.203,-0.125l-0.204,-0.124l-0.204,-0.123l-0.204,-0.122l-0.204,-0.121l-0.204,-0.119l-0.205,-0.119l-0.204,-0.118l-0.205,-0.116l-0.204,-0.115l-0.205,-0.114l-0.205,-0.113l-0.205,-0.112l-0.205,-0.111l-0.205,-0.11l-0.205,-0.109l-0.205,-0.107l-0.205,-0.107l-0.205,-0.105l-0.205,-0.104l-0.206,-0.103l-0.205,-0.102l-0.205,-0.101l-0.205,-0.1l-0.206,-0.098l-0.205,-0.098l-0.205,-0.096l-0.206,-0.095l-0.205,-0.094l-0.205,-0.093l-0.205,-0.092l-0.206,-0.09l-0.205,-0.09l-0.205,-0.088l-0.205,-0.088l-0.205,-0.086l-0.205,-0.085l-0.205,-0.083l-0.204,-0.083l-0.205,-0.082l-0.205,-0.08l-0.204,-0.079l-0.204,-0.078l-0.205,-0.077l-0.204,-0.076l-0.204,-0.075l-0.204,-0.073l-0.204,-0.072l-0.203,-0.072l-0.204,-0.07l-0.203,-0.069l-0.204,-0.067l-0.203,-0.067l-0.203,-0.065l-0.202,-0.064l-0.203,-0.063l-0.202,-0.062l-0.203,-0.061l-0.202,-0.059l-0.202,-0.059l-0.201,-0.057l-0.202,-0.056l-0.201,-0.055l-0.201,-0.054l-0.201,-0.052l-0.2,-0.051l-0.2,-0.051l-0.2,-0.049l-0.2,-0.047l-0.2,-0.047l-0.199,-0.045l-0.199,-0.045l-0.199,-0.043l-0.198,-0.041l-0.198,-0.041l-0.198,-0.04l-0.198,-0.038l-0.197,-0.037l-0.197,-0.036l-0.197,-0.034l-0.196,-0.034l-0.196,-0.032l-0.196,-0.031l-0.195,-0.03l-0.195,-0.029l-0.195,-0.027l-0.194,-0.027l-0.194,-0.025l-0.194,-0.024l-0.193,-0.022l-0.193,-0.022l-0.192,-0.02l-0.192,-0.019l-0.192,-0.018l-0.191,-0.016l-0.191,-0.016l-0.191,-0.014l-0.19,-0.013l-0.189,-0.012l-0.19,-0.01l-0.188,-0.009l-0.189,-0.008l-0.187,-0.007l-0.188,-0.006l-0.187,-0.004l-0.186,-0.003l-0.186,-0.002l-0.186,-0.001l-0.185,0.001Z"/></svg>