<?xml version="1.0" encoding="UTF-8" standalone="no"?><!DOCTYPE svg PUBLIC "-//W3C//DTD SVG 1.1//EN" "http://www.w3.org/Graphics/SVG/1.1/DTD/svg11.dtd"><svg width="100%" height="100%" viewBox="0 0 48 48" version="1.1" xmlns="http://www.w3.org/2000/svg" xmlns:xlink="http://www.w3.org/1999/xlink" xml:space="preserve" xmlns:serif="http://www.serif.com/" style="fill-rule:evenodd;clip-rule:evenodd;stroke-linejoin:round;stroke-miterlimit:1.41421;"><rect id="beer-glass" x="0" y="0" width="48" height="48" style="fill:none;"/><rect x="14" y="44" width="18" height="2"/><rect x="12" y="18" width="6" height="26"/><rect x="20" y="22" width="6" height="16"/><rect x="28" y="18" width="6" height="26"/><rect x="18" y="18" width="10" height="4"/><rect x="18" y="38" width="10" height="6"/><rect x="34" y="20" width="6" height="4"/><rect x="38" y="22" width="4" height="14"/><rect x="36" y="36" width="4" height="4"/><rect x="34" y="38" width="4" height="4"/><rect x="12" y="12" width="2" height="2" style="fill:#ec00ff;"/><rect x="26" y="16" width="2" height="2" style="fill:#ec00ff;"/><rect x="24" y="12" width="2" height="4" style="fill:#ec00ff;"/><rect x="14" y="10" width="10" height="2" style="fill:#ec00ff;"/><rect x="10" y="14" width="2" height="4" style="fill:#ec00ff;"/><rect x="24" y="8" width="2" height="2" style="fill:#ec00ff;"/><rect x="34" y="8" width="2" height="2" style="fill:#ec00ff;"/><rect x="26" y="6" width="8" height="2" style="fill:#ec00ff;"/><rect x="36" y="10" width="2" height="6" style="fill:#ec00ff;"/><rect x="34" y="16" width="2" height="2" style="fill:#ec00ff;"/><rect x="16" y="2" width="2" height="2" style="fill:#ec00ff;"/><rect x="10" y="6" width="2" height="2" style="fill:#ec00ff;"/><rect x="36" y="2" width="2" height="2" style="fill:#ec00ff;"/><rect x="20" y="6" width="2" height="2" style="fill:#ec00ff;"/></svg>