<?xml version="1.0" encoding="UTF-8" standalone="no"?><!DOCTYPE svg PUBLIC "-//W3C//DTD SVG 1.1//EN" "http://www.w3.org/Graphics/SVG/1.1/DTD/svg11.dtd"><svg width="100%" height="100%" viewBox="0 0 48 48" version="1.1" xmlns="http://www.w3.org/2000/svg" xmlns:xlink="http://www.w3.org/1999/xlink" xml:space="preserve" xmlns:serif="http://www.serif.com/" style="fill-rule:evenodd;clip-rule:evenodd;stroke-linejoin:round;stroke-miterlimit:1.41421;"><rect id="close" x="0" y="0" width="48" height="48" style="fill:none;"/><rect x="22" y="22" width="4" height="4"/><rect x="26" y="18" width="4" height="4"/><rect x="10" y="34" width="4" height="4"/><path d="M14,14l0,-4l-4,0l0,4l4,0Z"/><path d="M30,30l0,-4l-4,0l0,4l4,0Z"/><rect x="30" y="14" width="4" height="4"/><rect x="14" y="30" width="4" height="4"/><path d="M18,18l0,-4l-4,0l0,4l4,0Z"/><path d="M34,34l0,-4l-4,0l0,4l4,0Z"/><rect x="34" y="10" width="4" height="4"/><rect x="18" y="26" width="4" height="4"/><path d="M22,22l0,-4l-4,0l0,4l4,0Z"/><path d="M38,38l0,-4l-4,0l0,4l4,0Z"/></svg>