<?xml version="1.0" encoding="UTF-8" standalone="no"?><!DOCTYPE svg PUBLIC "-//W3C//DTD SVG 1.1//EN" "http://www.w3.org/Graphics/SVG/1.1/DTD/svg11.dtd"><svg width="100%" height="100%" viewBox="0 0 32 32" version="1.1" xmlns="http://www.w3.org/2000/svg" xmlns:xlink="http://www.w3.org/1999/xlink" xml:space="preserve" xmlns:serif="http://www.serif.com/" style="fill-rule:evenodd;clip-rule:evenodd;stroke-linejoin:round;stroke-miterlimit:1.41421;"><rect id="delete-forever-32" x="0" y="0" width="32" height="32" style="fill:none;"/><clipPath id="_clip1"><rect x="0" y="0" width="32" height="32"/></clipPath><g clip-path="url(#_clip1)"><path d="M28,10l0,18l-2,0l0,-18l-20,0l0,18l-2,0l0,-18l0,-2l24,0l0,2Z"/><path d="M2,4l6,0l0,-2l4,0l0,-2l8,0l0,2l4,0l0,2l4.667,0l0,2l-26.667,0l0,-2Z"/><path d="M22.667,30l0,2l-13.334,0l0,-2l13.334,0Zm3.333,-2l0,2l-20,0l0,-2l20,0Z"/><rect x="15" y="18" width="2" height="2"/><rect x="17" y="16" width="2" height="2"/><rect x="17" y="20" width="2" height="2"/><rect x="19" y="14" width="2" height="2"/><rect x="19" y="22" width="2" height="2"/><rect x="13" y="16" width="2" height="2"/><rect x="13" y="20" width="2" height="2"/><rect x="11" y="14" width="2" height="2"/><rect x="11" y="22" width="2" height="2"/><rect x="9" y="12" width="2" height="2"/><rect x="9" y="24" width="2" height="2"/><rect x="21" y="12" width="2" height="2"/><rect x="21" y="24" width="2" height="2"/></g></svg>