<?xml version="1.0" encoding="UTF-8" standalone="no"?><!DOCTYPE svg PUBLIC "-//W3C//DTD SVG 1.1//EN" "http://www.w3.org/Graphics/SVG/1.1/DTD/svg11.dtd"><svg width="100%" height="100%" viewBox="0 0 48 48" version="1.1" xmlns="http://www.w3.org/2000/svg" xmlns:xlink="http://www.w3.org/1999/xlink" xml:space="preserve" xmlns:serif="http://www.serif.com/" style="fill-rule:evenodd;clip-rule:evenodd;stroke-linejoin:round;stroke-miterlimit:1.41421;"><rect id="edit" x="0" y="0" width="48" height="48" style="fill:none;"/><rect x="6" y="34" width="4" height="8"/><rect x="10" y="38" width="4" height="4"/><rect x="14" y="36" width="2" height="4"/><rect x="10" y="30" width="2" height="4"/><rect x="8" y="32" width="2" height="2"/><rect x="12" y="28" width="2" height="4"/><rect x="14" y="26" width="2" height="4"/><rect x="16" y="24" width="2" height="4"/><rect x="18" y="22" width="2" height="4"/><rect x="20" y="20" width="2" height="4"/><rect x="22" y="18" width="2" height="4"/><rect x="24" y="16" width="2" height="4"/><rect x="16" y="34" width="2" height="4"/><rect x="18" y="32" width="2" height="4"/><rect x="20" y="30" width="2" height="4"/><rect x="22" y="28" width="2" height="4"/><rect x="24" y="26" width="2" height="4"/><rect x="26" y="24" width="2" height="4"/><rect x="28" y="22" width="2" height="4"/><rect x="30" y="20" width="2" height="4"/><rect x="26" y="14" width="4" height="4"/><rect x="28" y="16" width="4" height="4"/><rect x="30" y="18" width="4" height="4"/><rect x="32" y="8" width="4" height="4"/><rect x="34" y="8" width="6" height="6"/><rect x="36" y="12" width="4" height="4"/><rect x="34" y="6" width="4" height="4"/><rect x="38" y="10" width="4" height="4"/><rect x="22" y="18" width="4" height="2"/><rect x="20" y="20" width="4" height="2"/><rect x="18" y="22" width="4" height="2"/><rect x="16" y="24" width="4" height="2"/><rect x="14" y="26" width="4" height="2"/><rect x="12" y="28" width="4" height="2"/><rect x="10" y="30" width="4" height="2"/><rect x="8" y="32" width="4" height="2"/><rect x="28" y="22" width="4" height="2"/><rect x="26" y="24" width="4" height="2"/><rect x="24" y="26" width="4" height="2"/><rect x="22" y="28" width="4" height="2"/><rect x="20" y="30" width="4" height="2"/><rect x="18" y="32" width="4" height="2"/><rect x="16" y="34" width="4" height="2"/><rect x="14" y="36" width="4" height="2"/><rect x="12" y="38" width="4" height="2"/></svg>