<?xml version="1.0" encoding="UTF-8" standalone="no"?><!DOCTYPE svg PUBLIC "-//W3C//DTD SVG 1.1//EN" "http://www.w3.org/Graphics/SVG/1.1/DTD/svg11.dtd"><svg width="100%" height="100%" viewBox="0 0 32 32" version="1.1" xmlns="http://www.w3.org/2000/svg" xmlns:xlink="http://www.w3.org/1999/xlink" xml:space="preserve" xmlns:serif="http://www.serif.com/" style="fill-rule:evenodd;clip-rule:evenodd;stroke-linejoin:round;stroke-miterlimit:1.41421;"><rect id="edit-32" x="0" y="0" width="32" height="32" style="fill:none;"/><rect x="5" y="20" width="2" height="2"/><rect x="11" y="26" width="2" height="2"/><rect x="7" y="18" width="2" height="2"/><rect x="13" y="24" width="2" height="2"/><rect x="9" y="16" width="2" height="2"/><rect x="15" y="22" width="2" height="2"/><rect x="11" y="14" width="2" height="2"/><rect x="17" y="20" width="2" height="2"/><rect x="13" y="12" width="2" height="2"/><rect x="19" y="18" width="2" height="2"/><path d="M3,22l2,0l0,2l2,0l0,2l2,0l0,2l2,0l0,2l-8,0l0,-2l0,-2l0,-2l0,-2Z"/><path d="M23,2l2,0l0,2l2,0l0,2l2,0l0,2l2,0l0,2l-2,0l0,2l-2,0l0,-2l-2,0l0,-2l-2,0l0,-2l-2,0l0,-2l2,0l0,-2Z"/><path d="M17,8l2,0l0,-2l2,0l0,2l2,0l0,2l2,0l0,2l2,0l0,2l-2,0l0,2l-2,0l0,-2l-2,0l0,-2l-2,0l0,-2l-2,0l0,-2Z"/><rect x="15" y="10" width="2" height="2"/><rect x="21" y="16" width="2" height="2"/></svg>