<?xml version="1.0" encoding="UTF-8" standalone="no"?><!DOCTYPE svg PUBLIC "-//W3C//DTD SVG 1.1//EN" "http://www.w3.org/Graphics/SVG/1.1/DTD/svg11.dtd"><svg width="100%" height="100%" viewBox="0 0 48 48" version="1.1" xmlns="http://www.w3.org/2000/svg" xmlns:xlink="http://www.w3.org/1999/xlink" xml:space="preserve" xmlns:serif="http://www.serif.com/" style="fill-rule:evenodd;clip-rule:evenodd;stroke-linejoin:round;stroke-miterlimit:1.41421;"><rect id="food" x="0" y="0" width="48" height="48" style="fill:none;"/><rect x="4" y="42" width="28" height="2"/><rect x="4" y="30" width="28" height="4"/><rect x="6" y="26" width="24" height="6"/><rect x="8" y="24" width="20" height="4"/><rect x="34" y="18" width="8" height="27.998"/><rect x="32" y="14" width="12" height="14"/><rect x="30" y="14" width="4" height="10"/><rect x="28" y="14" width="4" height="8"/><rect x="24" y="14" width="6" height="6"/><rect x="22" y="14" width="4" height="4"/><rect x="32" y="2" width="4" height="10" style="fill:#ec00ff;"/><rect x="10" y="22" width="16" height="4"/><rect x="6" y="42" width="24" height="3.998"/><rect x="4" y="36" width="28" height="4" style="fill:#ec00ff;"/></svg>