<?xml version="1.0" encoding="UTF-8" standalone="no"?><!DOCTYPE svg PUBLIC "-//W3C//DTD SVG 1.1//EN" "http://www.w3.org/Graphics/SVG/1.1/DTD/svg11.dtd"><svg width="100%" height="100%" viewBox="0 0 48 48" version="1.1" xmlns="http://www.w3.org/2000/svg" xmlns:xlink="http://www.w3.org/1999/xlink" xml:space="preserve" xmlns:serif="http://www.serif.com/" style="fill-rule:evenodd;clip-rule:evenodd;stroke-linejoin:round;stroke-miterlimit:1.41421;"><rect id="ice" x="0" y="0" width="48" height="48" style="fill:none;"/><rect x="12" y="32" width="24" height="14"/><rect x="8" y="20" width="32" height="22"/><rect x="4" y="18" width="4" height="14"/><rect x="4" y="10" width="2" height="18"/><rect x="42" y="10" width="2" height="18"/><rect x="40" y="18" width="4" height="14"/><rect x="10" y="10" width="4" height="8" style="fill:#ec00ff;"/><rect x="16" y="10" width="2" height="4" style="fill:#ec00ff;"/><rect x="8" y="12" width="10" height="4" style="fill:#ec00ff;"/><rect x="34" y="10" width="4" height="8" style="fill:#ec00ff;"/><rect x="20" y="2" width="6" height="16" style="fill:#ec00ff;"/><rect x="20" y="8" width="10" height="8" style="fill:#ec00ff;"/><rect x="14" y="14" width="20" height="6" style="fill:#ec00ff;"/><rect x="18" y="14" width="2" height="4" style="fill:#ec00ff;"/><rect x="28" y="4" width="6" height="2"/><rect x="34" y="6" width="6" height="2"/><rect x="14" y="4" width="4" height="2"/><rect x="8" y="6" width="6" height="2"/><rect x="6" y="8" width="2" height="2"/><rect x="40" y="8" width="2" height="2"/><rect x="4" y="20" width="40" height="12"/><rect x="30" y="12" width="10" height="4" style="fill:#ec00ff;"/></svg>