<?xml version="1.0" encoding="UTF-8" standalone="no"?><!DOCTYPE svg PUBLIC "-//W3C//DTD SVG 1.1//EN" "http://www.w3.org/Graphics/SVG/1.1/DTD/svg11.dtd"><svg width="100%" height="100%" viewBox="0 0 32 32" version="1.1" xmlns="http://www.w3.org/2000/svg" xmlns:xlink="http://www.w3.org/1999/xlink" xml:space="preserve" xmlns:serif="http://www.serif.com/" style="fill-rule:evenodd;clip-rule:evenodd;stroke-linejoin:round;stroke-miterlimit:1.41421;"><rect id="menu-history" x="0" y="0" width="32" height="32" style="fill:none;"/><rect x="28" y="2" width="2" height="22"/><rect x="2" y="2" width="2" height="24"/><rect x="2" y="2" width="28" height="2"/><rect x="6" y="6" width="2" height="2"/><rect x="6" y="10" width="2" height="2"/><rect x="6" y="14" width="2" height="2"/><rect x="6" y="18" width="2" height="2"/><rect x="10" y="6" width="14" height="2"/><rect x="10" y="10" width="14" height="2"/><rect x="10" y="14" width="14" height="2"/><rect x="10" y="18" width="14" height="2"/><rect x="6" y="28" width="2" height="2"/><rect x="6" y="28" width="2" height="2"/><rect x="6" y="28" width="2" height="2"/><rect x="14" y="28" width="2" height="2"/><rect x="14" y="28" width="2" height="2"/><rect x="14" y="28" width="2" height="2"/><rect x="22" y="28" width="2" height="2"/><rect x="22" y="28" width="2" height="2"/><rect x="22" y="28" width="2" height="2"/><rect x="4" y="26" width="2" height="2"/><rect x="4" y="26" width="2" height="2"/><rect x="4" y="26" width="2" height="2"/><rect x="12" y="26" width="2" height="2"/><rect x="12" y="26" width="2" height="2"/><rect x="12" y="26" width="2" height="2"/><rect x="20" y="26" width="2" height="2"/><rect x="20" y="26" width="2" height="2"/><rect x="20" y="26" width="2" height="2"/><rect x="8" y="26" width="2" height="2"/><rect x="16" y="26" width="2" height="2"/><rect x="24" y="26" width="2" height="2"/><rect x="10" y="24" width="2" height="2"/><rect x="10" y="24" width="2" height="2"/><rect x="18" y="24" width="2" height="2"/><rect x="18" y="24" width="2" height="2"/><rect x="26" y="24" width="2" height="2"/></svg>