<?xml version="1.0" encoding="UTF-8" standalone="no"?><!DOCTYPE svg PUBLIC "-//W3C//DTD SVG 1.1//EN" "http://www.w3.org/Graphics/SVG/1.1/DTD/svg11.dtd"><svg width="100%" height="100%" viewBox="0 0 32 32" version="1.1" xmlns="http://www.w3.org/2000/svg" xmlns:xlink="http://www.w3.org/1999/xlink" xml:space="preserve" xmlns:serif="http://www.serif.com/" style="fill-rule:evenodd;clip-rule:evenodd;stroke-linejoin:round;stroke-miterlimit:1.41421;"><rect id="menu-bar" x="0" y="0" width="32" height="32" style="fill:none;"/><clipPath id="_clip1"><rect x="0" y="0" width="32" height="32"/></clipPath><g clip-path="url(#_clip1)"><path d="M10,16l-3,0l0,3l3,0l0,1l-3,0l0,3l3,0l0,1l-5,0l0,-1l1,0l0,-7l-1,0l0,-1l5,0l0,1Zm0,4l1,0l0,3l-1,0l0,-3Zm0,-4l1,0l0,3l-1,0l0,-3Z"/><path d="M26,16l-3,0l0,3l3,0l0,1l-3,0l0,4c0,0 -2,0 -2,0l0,-1l1,0l0,-7l-1,0l0,-1l5,0l0,1Zm0,4l1,0l0,4l-1,0l0,-4Zm0,-4l1,0l0,3l-1,0l0,-3Z"/><path d="M13,19c0,0 0,-3 0,-3l1,0l0,3l4,0l0,-3l1,0l0,8l-1,0l0,-4l-4,0l0,4l-1,0l0,-4c0,0 0,-1 0,-1Zm1,-4l4,0l0,1l-4,0l0,-1Z"/><rect x="29" y="11" width="1" height="17"/><rect x="11" y="11" width="10" height="1"/><path d="M6,10l2,0l0,-2l-2,0l0,2Zm2,-8l-2,0l0,3l-2,0l0,-3l2,0l0,-2l2,0l0,2Zm-5,8l1,0l0,-2l2,0l0,-3l2,0l0,-3l2,0l0,3l-2,0l0,3l2,0l0,2l1,0l0,1l-8,0l0,-1Z"/><path d="M24,10l2,0l0,-2l-2,0l0,2Zm2,-8l-2,0l0,3l-2,0l0,-3l2,0l0,-2l2,0l0,2Zm-5,8l1,0l0,-2l2,0l0,-3l2,0l0,-3l2,0l0,3l-2,0l0,3l2,0l0,2l1,0l0,1l-8,0l0,-1Z"/><path d="M1,12l1,0l0,-1l1,0l0,17l8,0c0,0 0,1 0,1l10,0l0,-1l8,0l0,1l-1,0l0,1l-7,0c0,0 -1,0 -1,0l0,1c0,0 -10,0 -10,0l0,-1l-8,0l0,-1l-1,0l0,-17Zm19,18c0,0 0,0 0,0Zm1,-1c0,0 0,0 0,0Z"/><rect x="12" y="23" width="2" height="1"/><rect x="18" y="23" width="2" height="1"/><rect x="26" y="23" width="2" height="1"/></g></svg>