<?xml version="1.0" encoding="UTF-8" standalone="no"?><!DOCTYPE svg PUBLIC "-//W3C//DTD SVG 1.1//EN" "http://www.w3.org/Graphics/SVG/1.1/DTD/svg11.dtd"><svg width="100%" height="100%" viewBox="0 0 32 32" version="1.1" xmlns="http://www.w3.org/2000/svg" xmlns:xlink="http://www.w3.org/1999/xlink" xml:space="preserve" xmlns:serif="http://www.serif.com/" style="fill-rule:evenodd;clip-rule:evenodd;stroke-linejoin:round;stroke-miterlimit:1.41421;"><rect id="menu-info" x="0" y="0" width="32" height="32" style="fill:none;"/><rect x="14" y="14" width="4" height="10"/><rect x="14" y="8" width="4" height="4"/><rect x="14" y="20" width="4" height="4"/><rect x="12" y="2" width="8" height="2"/><rect x="12" y="28" width="8" height="2"/><rect x="4" y="8" width="2" height="4"/><rect x="4" y="20" width="2" height="4"/><rect x="26" y="8" width="2" height="4"/><rect x="26" y="20" width="2" height="4"/><rect x="6" y="6" width="2" height="2"/><rect x="6" y="24" width="2" height="2"/><rect x="24" y="6" width="2" height="2"/><rect x="24" y="24" width="2" height="2"/><rect x="28" y="12" width="2" height="8"/><rect x="2" y="12" width="2" height="8"/><rect x="8" y="4" width="4" height="2"/><rect x="8" y="26" width="4" height="2"/><rect x="20" y="4" width="4" height="2"/><rect x="20" y="26" width="4" height="2"/></svg>