<?xml version="1.0" encoding="UTF-8" standalone="no"?><!DOCTYPE svg PUBLIC "-//W3C//DTD SVG 1.1//EN" "http://www.w3.org/Graphics/SVG/1.1/DTD/svg11.dtd"><svg width="100%" height="100%" viewBox="0 0 32 32" version="1.1" xmlns="http://www.w3.org/2000/svg" xmlns:xlink="http://www.w3.org/1999/xlink" xml:space="preserve" xmlns:serif="http://www.serif.com/" style="fill-rule:evenodd;clip-rule:evenodd;stroke-linejoin:round;stroke-miterlimit:1.41421;"><rect id="person-add-32" x="0" y="0" width="32" height="32" style="fill:none;"/><path d="M12,8l2,0l0,-2l2,0l0,-2l6,0l0,2l2,0l0,2l2,0l0,6l-2,0l0,2l-2,0l0,2l-6,0l0,-2l-2,0l0,-2l-2,0l0,-6Z"/><path d="M8,26l2,0l0,-2l2,0l0,-2l4,0l0,-2l5.333,0l0,2l4,0l0,2l2.667,0l0,2l2,0l0,2l-22,0l0,-2Z"/><path d="M2,16l4,0l0,-4l2,0l0,4l4,0l0,2l-4,0l0,4l-2,0l0,-4l-4,0l0,-2Z"/></svg>