<?xml version="1.0" encoding="UTF-8" standalone="no"?><!DOCTYPE svg PUBLIC "-//W3C//DTD SVG 1.1//EN" "http://www.w3.org/Graphics/SVG/1.1/DTD/svg11.dtd"><svg width="100%" height="100%" viewBox="0 0 48 48" version="1.1" xmlns="http://www.w3.org/2000/svg" xmlns:xlink="http://www.w3.org/1999/xlink" xml:space="preserve" xmlns:serif="http://www.serif.com/" style="fill-rule:evenodd;clip-rule:evenodd;stroke-linejoin:round;stroke-miterlimit:1.41421;"><rect id="person" x="0" y="0" width="48" height="48" style="fill:none;"/><rect x="16" y="14" width="16" height="4"/><path d="M26,24l0,-16l-4,0l0,16l4,0Z"/><path d="M30,22l0,-12l-12,0l0,12l12,0Z"/><path d="M40,40l0,-4l-32,0l0,4l32,0Z"/><path d="M38,38l0,-6l-28,0l0,6l28,0Z"/><path d="M34,34l0,-4l-20,0l0,4l20,0Z"/><path d="M28,32l0,-4l-8,0l0,4l8,0Z"/></svg>