<?xml version="1.0" encoding="UTF-8" standalone="no"?><!DOCTYPE svg PUBLIC "-//W3C//DTD SVG 1.1//EN" "http://www.w3.org/Graphics/SVG/1.1/DTD/svg11.dtd"><svg width="100%" height="100%" viewBox="0 0 48 48" version="1.1" xmlns="http://www.w3.org/2000/svg" xmlns:xlink="http://www.w3.org/1999/xlink" xml:space="preserve" xmlns:serif="http://www.serif.com/" style="fill-rule:evenodd;clip-rule:evenodd;stroke-linejoin:round;stroke-miterlimit:1.41421;"><rect id="promotion" x="0" y="0" width="48" height="48" style="fill:none;"/><rect x="2" y="14" width="44" height="8"/><rect x="4" y="12" width="40" height="12"/><rect x="6" y="26" width="14" height="18"/><rect x="28" y="26" width="14" height="18"/><rect x="8" y="26" width="12" height="20"/><rect x="28" y="26" width="10" height="20"/><rect x="22" y="26" width="4" height="20" style="fill:#ec00ff;"/><rect x="20" y="4" width="8" height="8" style="fill:#ec00ff;"/><rect x="32" y="2" width="8" height="2" style="fill:#ec00ff;"/><rect x="40" y="4" width="2" height="4" style="fill:#ec00ff;"/><rect x="36" y="8" width="4" height="2" style="fill:#ec00ff;"/><rect x="32" y="10" width="4" height="2" style="fill:#ec00ff;"/><rect x="18" y="8" width="12" height="2" style="fill:#ec00ff;"/><rect x="16" y="4" width="2" height="4" style="fill:#ec00ff;"/><rect x="30" y="4" width="2" height="4" style="fill:#ec00ff;"/><rect x="8" y="2" width="8" height="2" style="fill:#ec00ff;"/><rect x="6" y="4" width="2" height="4" style="fill:#ec00ff;"/><rect x="8" y="8" width="4" height="2" style="fill:#ec00ff;"/><rect x="12" y="10" width="4" height="2" style="fill:#ec00ff;"/><rect x="22" y="2" width="4" height="4" style="fill:#ec00ff;"/></svg>