<?xml version="1.0" encoding="UTF-8" standalone="no"?><!DOCTYPE svg PUBLIC "-//W3C//DTD SVG 1.1//EN" "http://www.w3.org/Graphics/SVG/1.1/DTD/svg11.dtd"><svg width="100%" height="100%" viewBox="0 0 32 32" version="1.1" xmlns="http://www.w3.org/2000/svg" xmlns:xlink="http://www.w3.org/1999/xlink" xml:space="preserve" xmlns:serif="http://www.serif.com/" style="fill-rule:evenodd;clip-rule:evenodd;stroke-linejoin:round;stroke-miterlimit:1.41421;"><rect id="save-32" x="0" y="0" width="32" height="32" style="fill:none;"/><rect x="4" y="3" width="17" height="2"/><rect x="4" y="28" width="23" height="2"/><rect x="2" y="5" width="2" height="23"/><rect x="27" y="11" width="2" height="17"/><rect x="6" y="8" width="12" height="5"/><path d="M12,18l2,0l0,-2l4,0l0,2l2,0l0,4l-2,0l0,2l-4,0l0,-2l-2,0l0,-4Z"/><rect x="21" y="5" width="2" height="2"/><rect x="23" y="7" width="2" height="2"/><rect x="25" y="9" width="2" height="2"/></svg>