<?xml version="1.0" encoding="UTF-8" standalone="no"?><!DOCTYPE svg PUBLIC "-//W3C//DTD SVG 1.1//EN" "http://www.w3.org/Graphics/SVG/1.1/DTD/svg11.dtd"><svg width="100%" height="100%" viewBox="0 0 48 48" version="1.1" xmlns="http://www.w3.org/2000/svg" xmlns:xlink="http://www.w3.org/1999/xlink" xml:space="preserve" xmlns:serif="http://www.serif.com/" style="fill-rule:evenodd;clip-rule:evenodd;stroke-linejoin:round;stroke-miterlimit:1.41421;"><rect id="water" x="0" y="0" width="48" height="48" style="fill:none;"/><clipPath id="_clip1"><rect x="0" y="0" width="48" height="48"/></clipPath><g clip-path="url(#_clip1)"><rect x="18" y="2" width="12" height="4" style="fill:#ec00ff;"/><rect x="20" y="6" width="2" height="8"/><rect x="16" y="14" width="4" height="2"/><rect x="14" y="16" width="2" height="2"/><rect x="12" y="18" width="2" height="2"/><rect x="28" y="14" width="4" height="2"/><rect x="32" y="16" width="2" height="2"/><rect x="34" y="18" width="2" height="2"/><rect x="26" y="6" width="2" height="8"/><rect x="20" y="0" width="8" height="2" style="fill:#ec00ff;"/><rect x="12" y="46" width="24" height="2"/><rect x="18" y="26" width="12" height="14" style="fill:#ec00ff;"/><path d="M32,38l0,-10l-16,0l0,10l16,0Z" style="fill:#ec00ff;"/><rect x="10" y="20" width="2" height="26"/><rect x="36" y="20" width="2" height="26"/></g></svg>