<?xml version="1.0" encoding="UTF-8" standalone="no"?><!DOCTYPE svg PUBLIC "-//W3C//DTD SVG 1.1//EN" "http://www.w3.org/Graphics/SVG/1.1/DTD/svg11.dtd"><svg width="100%" height="100%" viewBox="0 0 48 48" version="1.1" xmlns="http://www.w3.org/2000/svg" xmlns:xlink="http://www.w3.org/1999/xlink" xml:space="preserve" xmlns:serif="http://www.serif.com/" style="fill-rule:evenodd;clip-rule:evenodd;stroke-linejoin:round;stroke-miterlimit:1.41421;"><rect id="whisky" x="0" y="0" width="48" height="48" style="fill:none;"/><path d="M18,6l2,0l0,-2l8,0l0,2l2,0l0,6l-12,0l0,-6Z"/><path d="M6,40l4,0l0,2l28,0l0,-2l4,0l0,4l-2,0l0,2l-2,0l0,2l-28,0l0,-2l-2,0l0,-2l-2,0l0,-4Z"/><path d="M6,22l2,0l0,-2l6,0l0,-2l6,0l0,-4l8,0l0,4l6,0l0,2l6,0l0,2l2,0l0,4l-2,0l-4,0l0,2l-24,0l0,-2l-4,0l-2,0l0,-4Z"/><path d="M6,28l4,0l0,2l28,0l0,-2l4,0l0,10l-6,0l0,2l-24,0l0,-2l-6,0l0,-10Z" style="fill:#ec00ff;"/></svg>