<?xml version="1.0" encoding="UTF-8" standalone="no"?><!DOCTYPE svg PUBLIC "-//W3C//DTD SVG 1.1//EN" "http://www.w3.org/Graphics/SVG/1.1/DTD/svg11.dtd"><svg width="100%" height="100%" viewBox="0 0 512 512" version="1.1" xmlns="http://www.w3.org/2000/svg" xmlns:xlink="http://www.w3.org/1999/xlink" xml:space="preserve" xmlns:serif="http://www.serif.com/" style="fill-rule:evenodd;clip-rule:evenodd;stroke-linejoin:round;stroke-miterlimit:1.41421;"><rect id="_0.0.6" serif:id="0.0.6" x="0" y="0" width="512" height="512" style="fill:none;"/><g><rect x="0" y="96" width="512" height="320"/><rect x="16" y="49" width="480" height="411"/><path d="M416,512l0,-512l-320,0l0,512l320,0Z"/><path d="M464,496l0,-479l-416,0l0,479l416,0Z"/></g><rect x="160" y="432" width="177" height="32" style="fill:#778588;"/><rect x="143" y="223" width="49" height="209" style="fill:#778588;"/><rect x="223" y="223" width="49" height="194" style="fill:#778588;"/><rect x="304" y="192" width="48" height="224" style="fill:#778588;"/><rect x="143" y="192" width="209" height="64" style="fill:#778588;"/><rect x="144" y="416" width="208" height="32" style="fill:#778588;"/><rect x="352" y="208" width="64" height="32" style="fill:#778588;"/><rect x="400" y="224" width="32" height="144" style="fill:#778588;"/><rect x="384" y="368" width="32" height="32" style="fill:#778588;"/><rect x="352" y="384" width="48" height="32" style="fill:#778588;"/><rect x="144" y="143.5" width="128" height="48.5" style="fill:#f80;"/><rect x="272" y="176" width="16" height="16" style="fill:#f80;"/><rect x="160" y="128" width="96" height="64" style="fill:#f80;"/><rect x="128" y="160" width="16" height="32" style="fill:#f80;"/><rect x="288" y="81" width="64" height="79.5" style="fill:#f80;"/><rect x="368" y="112" width="16" height="61" style="fill:#f80;"/><rect x="304" y="96" width="64" height="95" style="fill:#f80;"/><rect x="272" y="96" width="96" height="32" style="fill:#f80;"/><rect x="224" y="79.5" width="16" height="16" style="fill:#f80;"/><rect x="384" y="32" width="16" height="16" style="fill:#f80;"/><rect x="192" y="32" width="16" height="16" style="fill:#f80;"/><rect x="128" y="79.5" width="16" height="16" style="fill:#f80;"/></svg>